<svg xmlns="http://www.w3.org/2000/svg" width="404" height="251" fill="none" viewBox="0 0 404 251"><path fill="#FC6469" d="M0 0h404v251H0z"/><path fill="#360103" fill-rule="evenodd" d="M162.658 162.74h78.684c-3.109-18.915-19.546-33.348-39.342-33.348s-36.233 14.433-39.342 33.348Zm-6.603.018c3.164-22.544 22.529-39.891 45.945-39.891s42.781 17.347 45.945 39.891c.5 3.569-2.469 6.506-6.072 6.506h-79.746c-3.603 0-6.572-2.937-6.072-6.506Z" clip-rule="evenodd"/><path fill="#360103" fill-rule="evenodd" d="M199.108 140.622c-14.109 0-21.207 11.791-22.962 17.933a3.263 3.263 0 0 1-6.274-1.792c2.112-7.391 10.867-22.665 29.236-22.665a3.262 3.262 0 0 1 0 6.524Zm25.723-26.999c7.207 0 13.049-5.842 13.049-13.049s-5.842-13.05-13.049-13.05-13.05 5.843-13.05 13.05c0 7.207 5.843 13.049 13.05 13.049Zm0 6.525c10.81 0 19.574-8.764 19.574-19.574 0-10.81-8.764-19.574-19.574-19.574-10.811 0-19.574 8.763-19.574 19.574 0 10.81 8.763 19.574 19.574 19.574Z" clip-rule="evenodd"/><path fill="#360103" fill-rule="evenodd" d="m221.402 117.923-3.262 9.787-6.19-2.064 3.263-9.787 6.189 2.064Z" clip-rule="evenodd"/></svg>