<svg xmlns="http://www.w3.org/2000/svg" width="404" height="251" fill="none" viewBox="0 0 404 251"><path fill="#F2D664" d="M0 0h404v251H0z"/><path fill="#261F00" fill-rule="evenodd" d="M227.544 80.005a4.182 4.182 0 0 1 1.462 3.177v81.438a4.182 4.182 0 1 1-8.363 0V88.068l-62.07 9.698v66.854a4.182 4.182 0 1 1-8.364 0V94.187a4.182 4.182 0 0 1 3.537-4.132l70.433-11.005a4.183 4.183 0 0 1 3.365.955Z" clip-rule="evenodd"/><path fill="#261F00" fill-rule="evenodd" d="M176.623 144.813a4.182 4.182 0 0 1 4.182-4.182h17.608a4.182 4.182 0 0 1 4.182 4.182v17.608a4.182 4.182 0 0 1-8.364 0v-13.427h-9.245v13.427a4.181 4.181 0 1 1-8.363 0v-17.608Zm-4.474-33.026a4.182 4.182 0 0 1 4.182-4.182h4.472a4.183 4.183 0 0 1 0 8.364h-4.472a4.182 4.182 0 0 1-4.182-4.182Zm0 15.408a4.182 4.182 0 0 1 4.182-4.182h4.472a4.182 4.182 0 0 1 0 8.363h-4.472a4.181 4.181 0 0 1-4.182-4.181Zm22.083-15.408a4.182 4.182 0 0 1 4.182-4.182h4.472a4.183 4.183 0 0 1 0 8.364h-4.472a4.182 4.182 0 0 1-4.182-4.182Zm0 15.408a4.182 4.182 0 0 1 4.182-4.182h4.472a4.182 4.182 0 0 1 0 8.363h-4.472a4.181 4.181 0 0 1-4.182-4.181Z" clip-rule="evenodd"/><path fill="#261F00" fill-rule="evenodd" d="M137 166.819a4.182 4.182 0 0 1 4.182-4.182h121.86a4.182 4.182 0 1 1 0 8.363h-121.86a4.181 4.181 0 0 1-4.182-4.181Z" clip-rule="evenodd"/><path fill="#261F00" fill-rule="evenodd" d="M246.674 122.256h-19.505v-8.364h23.687a4.182 4.182 0 0 1 4.182 4.182v48.744h-8.364v-44.562Z" clip-rule="evenodd"/></svg>