<?xml version="1.0" encoding="utf-8"?>
<!-- Generator: Adobe Illustrator 27.8.1, SVG Export Plug-In . SVG Version: 6.00 Build 0)  -->
<svg version="1.1" id="Layer_1" xmlns="http://www.w3.org/2000/svg" xmlns:xlink="http://www.w3.org/1999/xlink" x="0px" y="0px"
	 viewBox="0 0 2271.1000977 600" style="enable-background:new 0 0 2271.1000977 600;" xml:space="preserve">
<style type="text/css">
	.st0{fill:#212121;}
</style>
<g>
	<path class="st0" d="M1534,124c-40.1999512,0-71.1999512,14.3999939-100,44.5V131h-79v369h85V286c0-49,29-80,73-80c8,0,15,1,20,2
		l59-78C1569,126,1549,124,1534,124z"/>
	<polygon class="st0" points="2267,131 2169,131 2078.5,251.3999939 1988,131 1890,131 2028.3000488,316.8999939 1890,500 1990,500 
		2078,383.2999878 2166,500 2267,500 2127.8000488,317.2000122 	"/>
	<path class="st0" d="M482,48c-29,39-36,52-64,52H0v500h164c37,0,73-18,96-48c30-40,34-52,63-52h419V0H577C540,0,504,18,482,48z
		 M612,371H437c-38,0-73,16-96,47c-30,40-36,52-64,52H129V230h175c38,0,73-18,96-48c30-39,38-51,65-51h147V371z"/>
	<path class="st0" d="M1240,248c37-21,63-58,63-107c0-72-55-141-135-141H928v500h240c87,0,147-62,147-140
		C1315,314,1294,274,1240,248z M1013,78h148c37,0,59,35,59,66c0,38-33,64-64,64h-143V78z M1156,422h-143V286h148c38,0,69,33,69,67
		C1230,391,1191,422,1156,422z"/>
	<path class="st0" d="M1805,394c-14,22-41,35-71,35c-47,0-86-32-86-81h254c4-15,5-22,5-35c0-112-69-189-173-189
		c-102,0-174,73-174,192c0,116,69,191,176,191c75,0,141-37,160-113H1805z M1734,202c47,0,83,30,82,75h-167
		C1649,233,1687,202,1734,202z"/>
</g>
</svg>
