<svg xmlns="http://www.w3.org/2000/svg" width="404" height="251" fill="none" viewBox="0 0 404 251"><path fill="#9B7C00" d="M.5.5h403v250H.5z"/><path stroke="#000" d="M.5.5h403v250H.5z"/><path stroke="#000" stroke-opacity=".2" d="M.5.5h403v250H.5z"/><path fill="#9B7C00" d="M155 80h92v92h-92z"/><path fill="#F2D664" fill-rule="evenodd" d="M155 97.692C155 87.922 163.182 80 173.274 80h55.452C238.818 80 247 87.921 247 97.692v30.536c0 1.954-1.636 3.539-3.655 3.539h-20.547l-9.283 16.072c-.682 1.181-2 1.882-3.396 1.806-1.395-.077-2.624-.917-3.164-2.165l-12.594-29.072-6.669 11.547c-.646 1.119-1.866 1.812-3.19 1.812H162.31v22.541c0 5.862 4.909 10.615 10.964 10.615h55.452c6.055 0 10.964-4.753 10.964-10.615v-1.011c0-1.955 1.637-3.539 3.655-3.539 2.019 0 3.655 1.584 3.655 3.539v1.011c0 9.771-8.182 17.692-18.274 17.692h-55.452C163.182 172 155 164.079 155 154.308v-26.08c0-1.954 1.636-3.538 3.655-3.538h23.703l9.283-16.073c.682-1.181 2.001-1.882 3.396-1.805 1.396.076 2.624.916 3.165 2.164l12.593 29.072 6.669-11.547c.646-1.118 1.867-1.811 3.19-1.811h19.036V97.692c0-5.862-4.909-10.615-10.964-10.615h-55.452c-6.055 0-10.964 4.753-10.964 10.615v4.044c0 1.955-1.637 3.539-3.655 3.539-2.019 0-3.655-1.584-3.655-3.539v-4.044Z" clip-rule="evenodd"/></svg>