<svg xmlns="http://www.w3.org/2000/svg" width="27" height="27" fill="none" viewBox="0 0 27 27"><g filter="url(#a)"><path fill="#261F00" d="M4 0h19v19H4z"/><path stroke="#000" d="M4.5.5h18v18h-18z"/><path stroke="#000" stroke-opacity=".2" d="M4.5.5h18v18h-18z"/></g><path fill="#F2D664" fill-rule="evenodd" d="M6.533 5.213c0-1.48 1.24-2.68 2.768-2.68h8.398c1.529 0 2.768 1.2 2.768 2.68v4.624a.545.545 0 0 1-.554.536h-3.112l-1.406 2.434a.558.558 0 0 1-.514.274.553.553 0 0 1-.48-.328L12.496 8.35l-1.01 1.749a.557.557 0 0 1-.484.274h-3.36v3.414c0 .888.743 1.608 1.66 1.608H17.7c.917 0 1.66-.72 1.66-1.608v-.153c0-.296.248-.536.554-.536.306 0 .554.24.554.536v.153c0 1.48-1.24 2.68-2.768 2.68H9.301c-1.529 0-2.768-1.2-2.768-2.68v-3.95c0-.296.248-.535.554-.535h3.59l1.406-2.435a.558.558 0 0 1 .514-.273.553.553 0 0 1 .48.328l1.906 4.403 1.01-1.75a.557.557 0 0 1 .484-.273h2.883v-4.09c0-.887-.744-1.607-1.66-1.607H9.3c-.916 0-1.66.72-1.66 1.608v.612a.545.545 0 0 1-.553.536.545.545 0 0 1-.554-.536v-.612Z" clip-rule="evenodd"/><defs><filter id="a" width="27" height="27" x="0" y="0" color-interpolation-filters="sRGB" filterUnits="userSpaceOnUse"><feFlood flood-opacity="0" result="BackgroundImageFix"/><feColorMatrix in="SourceAlpha" result="hardAlpha" values="0 0 0 0 0 0 0 0 0 0 0 0 0 0 0 0 0 0 127 0"/><feOffset dy="4"/><feGaussianBlur stdDeviation="2"/><feComposite in2="hardAlpha" operator="out"/><feColorMatrix values="0 0 0 0 0 0 0 0 0 0 0 0 0 0 0 0 0 0 0.25 0"/><feBlend in2="BackgroundImageFix" result="effect1_dropShadow_101_261"/><feColorMatrix in="SourceAlpha" result="hardAlpha" values="0 0 0 0 0 0 0 0 0 0 0 0 0 0 0 0 0 0 127 0"/><feOffset dy="4"/><feGaussianBlur stdDeviation="2"/><feComposite in2="hardAlpha" operator="out"/><feColorMatrix values="0 0 0 0 0 0 0 0 0 0 0 0 0 0 0 0 0 0 0.25 0"/><feBlend in2="effect1_dropShadow_101_261" result="effect2_dropShadow_101_261"/><feBlend in="SourceGraphic" in2="effect2_dropShadow_101_261" result="shape"/></filter></defs></svg>