<svg xmlns="http://www.w3.org/2000/svg" width="404" height="251" fill="none" viewBox="0 0 404 251"><path fill="#F0894F" d="M0 0h404v251H0z"/><path fill="#572900" fill-rule="evenodd" d="M202.014 155.912c13.605 0 24.634-11.029 24.634-24.634 0-13.604-11.029-24.633-24.634-24.633s-24.634 11.029-24.634 24.633c0 13.605 11.029 24.634 24.634 24.634Zm0 6.134c16.993 0 30.767-13.775 30.767-30.768 0-16.992-13.774-30.767-30.767-30.767-16.992 0-30.767 13.775-30.767 30.767 0 16.993 13.775 30.768 30.767 30.768Z" clip-rule="evenodd"/><path fill="#572900" fill-rule="evenodd" d="M225.485 144.493a3.068 3.068 0 0 1 4.337 0l10.256 10.256a3.068 3.068 0 0 1-4.337 4.337l-10.256-10.256a3.068 3.068 0 0 1 0-4.337Zm-46.941 0a3.068 3.068 0 0 0-4.337 0l-10.256 10.256a3.066 3.066 0 1 0 4.337 4.337l10.256-10.256a3.068 3.068 0 0 0 0-4.337Zm0-26.43a3.066 3.066 0 0 1-4.337 0l-10.256-10.256a3.066 3.066 0 1 1 4.337-4.336l10.256 10.255a3.068 3.068 0 0 1 0 4.337Zm46.941 0a3.066 3.066 0 0 0 4.337 0l10.256-10.256a3.067 3.067 0 0 0-4.337-4.336l-10.256 10.255a3.068 3.068 0 0 0 0 4.337Zm-23.471-14.284a3.067 3.067 0 0 1 3.067 3.066v49.067a3.067 3.067 0 1 1-6.133 0v-49.067a3.066 3.066 0 0 1 3.066-3.066Z" clip-rule="evenodd"/><path fill="#572900" fill-rule="evenodd" d="M215.575 107.361c0-7.49-6.071-13.561-13.561-13.561-7.489 0-13.561 6.071-13.561 13.561a3.067 3.067 0 1 1-6.133 0c0-10.877 8.817-19.695 19.694-19.695 10.877 0 19.695 8.818 19.695 19.695a3.067 3.067 0 1 1-6.134 0Z" clip-rule="evenodd"/></svg>