<svg xmlns="http://www.w3.org/2000/svg" width="19" height="19" fill="none" viewBox="0 0 19 19"><path fill="#022719" d="M.5.5h18v18H.5z"/><path stroke="#000" d="M.5.5h18v18H.5z"/><path stroke="#000" stroke-opacity=".2" d="M.5.5h18v18H.5z"/><path fill="#F0894F" fill-rule="evenodd" d="M9.503 15.027a4.552 4.552 0 1 0 0-9.104 4.552 4.552 0 0 0 0 9.104Zm0 1.134a5.685 5.685 0 1 0 0-11.37 5.685 5.685 0 0 0 0 11.37Z" clip-rule="evenodd"/><path fill="#F0894F" fill-rule="evenodd" d="M13.84 12.917a.567.567 0 0 1 .801 0l1.895 1.895a.567.567 0 0 1-.801.802l-1.895-1.895a.567.567 0 0 1 0-.802Zm-8.674 0a.567.567 0 0 0-.802 0L2.47 14.812a.567.567 0 0 0 .802.802l1.895-1.895a.567.567 0 0 0 0-.802Zm0-4.884a.567.567 0 0 1-.802 0L2.47 6.138a.567.567 0 0 1 .802-.801l1.895 1.895a.567.567 0 0 1 0 .801Zm8.674 0c.221.222.58.222.801 0l1.895-1.895a.567.567 0 0 0-.801-.801L13.84 7.232a.567.567 0 0 0 0 .801ZM9.503 5.394c.313 0 .566.254.566.567v9.066a.567.567 0 1 1-1.133 0V5.961c0-.313.254-.567.567-.567Z" clip-rule="evenodd"/><path fill="#F0894F" fill-rule="evenodd" d="M12.008 6.056a2.506 2.506 0 1 0-5.011 0 .567.567 0 0 1-1.134 0 3.64 3.64 0 0 1 7.279 0 .567.567 0 0 1-1.133 0Z" clip-rule="evenodd"/></svg>