<svg xmlns="http://www.w3.org/2000/svg" width="404" height="251" fill="none" viewBox="0 0 404 251"><path fill="#904707" d="M.5.5h403v250H.5z"/><path stroke="#000" d="M.5.5h403v250H.5z"/><path stroke="#000" stroke-opacity=".2" d="M.5.5h403v250H.5z"/><path fill="#F0894F" fill-rule="evenodd" d="M202.014 155.912c13.605 0 24.634-11.029 24.634-24.633 0-13.605-11.029-24.634-24.634-24.634-13.604 0-24.633 11.029-24.633 24.634 0 13.604 11.029 24.633 24.633 24.633Zm0 6.134c16.993 0 30.768-13.775 30.768-30.767 0-16.993-13.775-30.768-30.768-30.768-16.992 0-30.767 13.775-30.767 30.768 0 16.992 13.775 30.767 30.767 30.767Z" clip-rule="evenodd"/><path fill="#F0894F" fill-rule="evenodd" d="M225.485 144.494a3.066 3.066 0 0 1 4.337 0l10.256 10.256a3.066 3.066 0 1 1-4.337 4.336l-10.256-10.255a3.068 3.068 0 0 1 0-4.337Zm-46.941 0a3.066 3.066 0 0 0-4.337 0l-10.256 10.256a3.066 3.066 0 1 0 4.337 4.336l10.256-10.255a3.068 3.068 0 0 0 0-4.337Zm0-26.43a3.068 3.068 0 0 1-4.337 0l-10.256-10.256a3.066 3.066 0 1 1 4.337-4.337l10.256 10.256a3.068 3.068 0 0 1 0 4.337Zm46.941 0a3.068 3.068 0 0 0 4.337 0l10.256-10.256a3.066 3.066 0 1 0-4.337-4.337l-10.256 10.256a3.068 3.068 0 0 0 0 4.337Zm-23.471-14.285a3.067 3.067 0 0 1 3.067 3.067v49.066a3.067 3.067 0 1 1-6.133 0v-49.066a3.067 3.067 0 0 1 3.066-3.067Z" clip-rule="evenodd"/><path fill="#F0894F" fill-rule="evenodd" d="M215.576 107.361c0-7.49-6.072-13.561-13.562-13.561-7.489 0-13.561 6.072-13.561 13.561a3.067 3.067 0 1 1-6.133 0c0-10.877 8.818-19.694 19.694-19.694 10.877 0 19.695 8.817 19.695 19.694a3.067 3.067 0 1 1-6.133 0Z" clip-rule="evenodd"/></svg>