<svg xmlns="http://www.w3.org/2000/svg" width="404" height="251" fill="none" viewBox="0 0 404 251"><path fill="#F0894F" d="M0 0h404v251H0V0Z"/><path fill="#FBDCC1" d="m185.355 122.125 16.313 15.786 16.346-15.786c1.554-2.105 1.832-8.119-3.263-11.727-6.142-4.351-11.374 0-13.083 2.706-1.709-2.706-7.768-6.315-13.05-2.706-5.283 3.608-4.817 9.622-3.263 11.727Z"/><path fill="#572900" fill-rule="evenodd" d="M205.407 106.144c3.246-1.25 7.21-1.146 11.178 1.665 3.301 2.338 4.92 5.522 5.419 8.49.47 2.793-.006 5.77-1.438 7.71l-.157.213-18.743 18.102-18.707-18.103-.156-.212c-1.4-1.897-1.961-4.842-1.514-7.678.475-3.01 2.119-6.217 5.539-8.553 3.627-2.478 7.536-2.437 10.65-1.408a14.52 14.52 0 0 1 4.065 2.116 13.252 13.252 0 0 1 3.864-2.342Zm2.281 5.921c-1.537.592-2.775 1.842-3.337 2.733a3.174 3.174 0 0 1-5.365 0c-.406-.644-1.702-1.81-3.498-2.403-1.663-.55-3.425-.509-5.081.622-1.862 1.272-2.626 2.877-2.85 4.302-.218 1.38.087 2.399.273 2.786l13.841 13.394 13.859-13.386a2.35 2.35 0 0 0 .046-.108 3.59 3.59 0 0 0 .178-.656 5.89 5.89 0 0 0-.007-1.998c-.247-1.467-1.036-3.095-2.829-4.365-2.174-1.54-3.897-1.435-5.23-.921Z" clip-rule="evenodd"/><path fill="#572900" fill-rule="evenodd" d="M201.758 86.345c-19.272 0-34.896 15.623-34.896 34.896a3.173 3.173 0 1 1-6.345 0c0-22.777 18.464-41.241 41.241-41.241S243 98.464 243 121.241a3.174 3.174 0 0 1-6.345 0c0-19.273-15.624-34.896-34.897-34.896Z" clip-rule="evenodd"/><path fill="#572900" fill-rule="evenodd" d="M204.931 159.311a3.172 3.172 0 0 0 3.172 3.172c19.273 0 34.897-15.624 34.897-34.897a3.173 3.173 0 0 0-6.345 0c0 15.769-12.783 28.552-28.552 28.552a3.172 3.172 0 0 0-3.172 3.173Z" clip-rule="evenodd"/><path fill="#FBDCC1" d="M151 121.241c0-7.008 5.681-12.689 12.69-12.689 7.008 0 12.689 5.681 12.689 12.689v19.035c0 7.008-5.681 12.689-12.689 12.689-7.009 0-12.69-5.681-12.69-12.689v-19.035Z"/><path fill="#572900" fill-rule="evenodd" d="M170.034 140.276v-19.035a6.344 6.344 0 0 0-6.344-6.344 6.344 6.344 0 0 0-6.345 6.344v19.035a6.345 6.345 0 1 0 12.689 0Zm-6.344-31.724c-7.009 0-12.69 5.681-12.69 12.689v19.035c0 7.008 5.681 12.689 12.69 12.689 7.008 0 12.689-5.681 12.689-12.689v-19.035c0-7.008-5.681-12.689-12.689-12.689Z" clip-rule="evenodd"/><path fill="#FBDCC1" d="M189.069 159.31c0-7.008 5.681-12.689 12.689-12.689 7.009 0 12.69 5.681 12.69 12.689S208.767 172 201.758 172c-7.008 0-12.689-5.682-12.689-12.69Z"/><path fill="#572900" fill-rule="evenodd" d="M195.414 159.31a6.344 6.344 0 1 0 12.689 0 6.345 6.345 0 1 0-12.689 0Zm6.344-12.689c-7.008 0-12.689 5.681-12.689 12.689S194.75 172 201.758 172c7.009 0 12.69-5.682 12.69-12.69 0-7.008-5.681-12.689-12.69-12.689Z" clip-rule="evenodd"/><path fill="#FBDCC1" d="M227.138 121.241c0-7.008 5.681-12.689 12.689-12.689 7.009 0 12.69 5.681 12.69 12.689v19.035c0 7.008-5.681 12.689-12.69 12.689-7.008 0-12.689-5.681-12.689-12.689v-19.035Z"/><path fill="#572900" fill-rule="evenodd" d="M246.172 140.276v-19.035a6.344 6.344 0 0 0-12.689 0v19.035a6.344 6.344 0 1 0 12.689 0Zm-6.345-31.724c-7.008 0-12.689 5.681-12.689 12.689v19.035c0 7.008 5.681 12.689 12.689 12.689 7.009 0 12.69-5.681 12.69-12.689v-19.035c0-7.008-5.681-12.689-12.69-12.689Z" clip-rule="evenodd"/></svg>