<svg xmlns="http://www.w3.org/2000/svg" width="404" height="251" fill="none" viewBox="0 0 404 251"><path fill="#FC6469" d="M0 0h404v251H0z"/><path fill="#360103" fill-rule="evenodd" d="M160.283 83.081a2.933 2.933 0 0 1 3.011.145l22 14.667a2.934 2.934 0 0 1 1.307 2.441v66a2.933 2.933 0 0 1-4.561 2.441l-22-14.667a2.933 2.933 0 0 1-1.306-2.441v-66c0-1.082.595-2.076 1.549-2.586Zm4.318 8.067v58.949l16.133 10.756v-58.949l-16.133-10.756Z" clip-rule="evenodd"/><path fill="#360103" fill-rule="evenodd" d="M158.734 85.667a2.933 2.933 0 0 1 2.933-2.933h55c.511 0 1.012.133 1.456.386l25.666 14.667a2.934 2.934 0 0 1-1.455 5.48h-58.667a2.933 2.933 0 1 1 0-5.866h47.621l-15.4-8.8h-54.221a2.933 2.933 0 0 1-2.933-2.934Z" clip-rule="evenodd"/><path fill="#360103" fill-rule="evenodd" d="M242.334 97.4a2.933 2.933 0 0 1 2.933 2.934v66a2.933 2.933 0 0 1-2.933 2.933h-58.667a2.933 2.933 0 1 1 0-5.867h55.734v-63.066a2.933 2.933 0 0 1 2.933-2.934Z" clip-rule="evenodd"/></svg>