<svg xmlns="http://www.w3.org/2000/svg" width="404" height="251" fill="none" viewBox="0 0 404 251"><path fill="#7C92FF" d="M0 0h404v251H0z"/><path fill="#013234" fill-rule="evenodd" d="M236.564 92.558c-1.422.399-2.854 1.218-3.697 1.841a2.765 2.765 0 0 1-3.287-4.447c1.232-.91 3.263-2.094 5.49-2.718 2.148-.603 5.223-.872 7.681 1.207 1.36 1.15 2.059 2.9 2.468 4.385.437 1.586.681 3.401.81 5.183.26 3.573.089 7.401-.147 9.855a2.765 2.765 0 1 1-5.505-.53c.215-2.236.368-5.741.137-8.924-.116-1.596-.323-3.014-.626-4.115-.151-.547-.31-.96-.461-1.252-.143-.276-.24-.372-.248-.38-.001 0-.001 0 0 0-.357-.302-1.115-.526-2.615-.105Zm-69.945 67.247c1.422-.399 2.854-1.218 3.696-1.841a2.765 2.765 0 0 1 3.287 4.447c-1.231.911-3.263 2.094-5.489 2.719-2.149.602-5.224.872-7.681-1.208-1.442-1.22-2.078-3.15-2.418-4.692-.373-1.685-.539-3.63-.596-5.534-.116-3.822.195-7.895.424-10.279a2.765 2.765 0 1 1 5.504.53c-.222 2.306-.506 6.108-.401 9.582.053 1.745.202 3.303.468 4.508.257 1.164.537 1.58.586 1.653.007.012.009.015.005.011.356.301 1.114.525 2.615.104Zm68.753 1.594c-.404-1.44-1.233-2.89-1.864-3.743a2.766 2.766 0 0 1 4.447-3.287c.918 1.242 2.111 3.291 2.741 5.536.608 2.166.878 5.26-1.214 7.732-1.224 1.447-3.238 2.123-4.843 2.508-1.778.426-3.858.667-5.911.795-4.113.259-8.505.09-11.003-.15a2.765 2.765 0 0 1 .529-5.505c2.239.216 6.336.375 10.128.137 1.9-.12 3.627-.333 4.968-.655 1.34-.321 1.821-.643 1.9-.696.01-.006.013-.009.011-.006.313-.37.537-1.148.111-2.666Zm-67.174-70.163c.405 1.44 1.234 2.889 1.864 3.742a2.765 2.765 0 1 1-4.447 3.287c-.918-1.242-2.111-3.29-2.741-5.535-.608-2.167-.877-5.261 1.214-7.733 1.192-1.409 3.08-2.1 4.632-2.497 1.689-.433 3.643-.676 5.568-.805 3.86-.26 7.987-.09 10.475.15a2.765 2.765 0 0 1-.529 5.504c-2.248-.216-6.069-.373-9.574-.137-1.757.118-3.338.33-4.567.645-.612.156-1.073.323-1.399.482-.29.142-.388.236-.391.238-.31.373-.528 1.15-.105 2.659Z" clip-rule="evenodd"/><path fill="#013234" fill-rule="evenodd" d="M202 166.47c22.351 0 40.47-18.119 40.47-40.47S224.351 85.53 202 85.53s-40.47 18.119-40.47 40.47 18.119 40.47 40.47 40.47Zm0 5.53c25.405 0 46-20.595 46-46s-20.595-46-46-46-46 20.595-46 46 20.595 46 46 46Z" clip-rule="evenodd"/><path fill="#013234" fill-rule="evenodd" d="M202 145.906c10.993 0 19.905-8.912 19.905-19.906 0-10.993-8.912-19.905-19.905-19.905-10.994 0-19.906 8.912-19.906 19.905 0 10.994 8.912 19.906 19.906 19.906Zm0 5.53c14.047 0 25.435-11.388 25.435-25.436 0-14.047-11.388-25.435-25.435-25.435-14.048 0-25.436 11.388-25.436 25.435 0 14.048 11.388 25.436 25.436 25.436Z" clip-rule="evenodd"/><path fill="#013234" fill-rule="evenodd" d="M177.477 86.528a2.765 2.765 0 0 1 3.908.128l14.148 15.106a2.765 2.765 0 0 1-4.037 3.78l-14.147-15.106a2.765 2.765 0 0 1 .128-3.908Zm-15.845 14.382a2.765 2.765 0 0 1 3.906-.182l15.299 13.937a2.764 2.764 0 1 1-3.724 4.088l-15.299-13.937a2.764 2.764 0 0 1-.182-3.906Zm61.037 31.093a2.765 2.765 0 0 1 3.904-.217l15.423 13.8a2.764 2.764 0 1 1-3.687 4.121l-15.423-13.8a2.765 2.765 0 0 1-.217-3.904Zm-14.832 14.842a2.766 2.766 0 0 1 3.907.17l14.352 15.656a2.765 2.765 0 1 1-4.076 3.737l-14.352-15.656a2.766 2.766 0 0 1 .169-3.907Zm-12.962.06a2.766 2.766 0 0 1 .291 3.9l-13.143 15.261a2.764 2.764 0 1 1-4.19-3.608l13.142-15.262a2.766 2.766 0 0 1 3.9-.291Zm-14.144-14.957a2.766 2.766 0 0 1-.173 3.907l-15.115 13.832a2.765 2.765 0 1 1-3.733-4.08l15.115-13.832a2.765 2.765 0 0 1 3.906.173Zm28.779-26.488a2.765 2.765 0 0 1-.499-3.878l11.906-15.424a2.765 2.765 0 1 1 4.377 3.38l-11.906 15.423a2.765 2.765 0 0 1-3.878.499Zm13.453 14.564a2.766 2.766 0 0 1 .166-3.907l14.612-13.42a2.766 2.766 0 0 1 3.741 4.073l-14.612 13.42a2.766 2.766 0 0 1-3.907-.166Z" clip-rule="evenodd"/></svg>