<?xml version="1.0" encoding="utf-8"?>
<!-- Generator: Adobe Illustrator 28.0.0, SVG Export Plug-In . SVG Version: 6.00 Build 0)  -->
<svg version="1.1" id="Layer_1" xmlns="http://www.w3.org/2000/svg" xmlns:xlink="http://www.w3.org/1999/xlink" x="0px" y="0px"
	 viewBox="0 0 1366 768" style="enable-background:new 0 0 1366 768;" xml:space="preserve">
<style type="text/css">
	.st0{fill-rule:evenodd;clip-rule:evenodd;fill:#303030;}
</style>
<g id="Rebrand-Announcement">
	<g id="FAIRE">
		<path class="st0" d="M281.8,351.7l-1.8,0.9c-4.8-5.9-9.3-11-13.7-15.2c-4.3-4.2-8.5-7.3-12.6-9.2c-2-0.9-5.6-1.7-10.8-2.4
			c-5.2-0.6-11.2-1-18.1-1c-1.2,0-2.5,0-4,0.1s-3,0.1-4.4,0.2c-1.4,0.1-2.7,0.1-3.9,0.2s-2.1,0.1-2.7,0.1c-0.1,0.7-0.3,1.4-0.4,2.1
			c-0.2,0.7-0.3,1.5-0.4,2.4c-0.1,0.9-0.2,2.1-0.4,3.6c-0.1,1.5-0.2,3.2-0.4,5.3c-0.1,4.1-0.2,8.5-0.3,13.3
			c-0.1,4.8-0.1,9.4-0.1,13.7v16.6h3.2c1.9,0,3.9-0.1,6.2-0.2c2.3-0.1,4.6-0.3,7.1-0.4c2.5-0.2,4.5-0.4,6.1-0.8
			c4.2-0.9,7.5-2.2,10-3.7c2.5-1.5,4.4-3.3,5.8-5.4c1.4-2.1,2.4-4.4,3-6.9c0.6-2.5,1.1-5.2,1.6-8.1h2.1v56.2h-2.1
			c-0.9-3.7-2.3-7.6-4-11.8c-1.8-4.1-3.9-7.3-6.3-9.5c-2.2-2-4.6-3.5-7.1-4.4c-2.5-1-5.5-1.6-8.8-1.8c-1.8-0.1-3.3-0.2-4.6-0.3
			c-1.3-0.1-2.5-0.1-3.7-0.1h-8.4v21.6c0,3.3,0,6.2,0.1,9c0.1,2.7,0.1,5.1,0.1,7.1c0.1,3.7,0.3,7.2,0.6,10.6c0.3,3.3,1,5.8,2,7.4
			c1.1,1.6,2.8,2.9,5.3,3.7c2.5,0.9,6.2,1.4,10.9,1.7v1.7h-56v-1.7c2.9-0.5,5.6-1.2,8.1-2.3c2.5-1,4.6-2.5,6.2-4.4
			c0.6-0.7,1.1-1.7,1.4-3.1c0.4-1.3,0.7-2.9,1-4.6c0.3-1.7,0.5-3.6,0.6-5.5s0.2-3.8,0.2-5.7c0-1.6,0-3.8,0.1-6.6
			c0.1-2.8,0.1-5.8,0.2-9.2c0.1-3.3,0.1-6.7,0.1-10.2v-44.1c0-2.1,0-4.2-0.1-6.5c-0.1-2.2-0.2-4.3-0.4-6.3c-0.2-2-0.5-3.7-0.9-5.3
			c-0.4-1.6-1-2.7-1.7-3.4c-1.8-1.9-3.6-3.1-5.6-3.6c-2-0.5-4.6-1-7.7-1.5v-1.7h97.3L281.8,351.7z M473.1,448v-1.7
			c0.4,0,1.2-0.1,2.5-0.3c1.3-0.2,2.7-0.6,4.2-1.2c1.5-0.6,2.7-1.4,3.9-2.4s1.7-2.4,1.7-4c0-1-0.3-2.8-1-5.1
			c-0.6-2.4-1.5-5.3-2.7-8.7s-2.5-7.2-4-11.4c-1.5-4.2-3.2-8.5-4.9-13.1h-46.6c-1.8,4.4-3.4,8.6-5.1,12.6c-1.6,4-3.3,8.1-4.9,12.1
			c-2.5,6.3-3.7,10.7-3.7,13.3c0,1.5,0.5,2.8,1.4,3.7s2.1,1.8,3.6,2.4c1.5,0.6,3,1.1,4.7,1.4c1.7,0.3,3.3,0.6,4.8,0.8v1.7h-37.3
			v-1.9c3-0.3,5.6-1.2,7.8-2.4c2.2-1.3,3.4-2.2,3.8-2.6c0.8-0.8,2.2-2.7,4-5.8c1.9-3,4.1-7.5,6.8-13.4c2.5-5.5,5.2-11.7,8.2-18.7
			c3-7,6.2-14.2,9.4-21.5s6.4-14.8,9.5-22.3c3.2-7.5,6.1-14.5,8.9-21l-1.8-3.8c2.1-0.9,4-2,5.7-3.3c1.7-1.3,3.2-2.6,4.5-4
			c1.3-1.4,2.4-2.7,3.2-4s1.5-2.3,2-3.1h1.4c3.6,9.6,7.1,18.8,10.3,27.5s6.4,17,9.4,25c3,8,5.9,15.8,8.7,23.3
			c2.8,7.5,5.6,14.9,8.4,22.2c1.3,3.6,2.5,6.6,3.6,9s2.4,5.1,3.8,8.1c0.2,0.5,0.8,1.3,1.6,2.4c0.8,1.2,1.9,2.4,3.2,3.6
			c1.3,1.2,3,2.3,5,3.2c2,0.9,4.3,1.5,7,1.6v2.1H473.1z M450.1,342.3c-0.7,1.5-1.7,3.9-3.1,7.1c-1.3,3.3-3,7.2-5,11.9
			s-4.2,9.9-6.6,15.8s-5,12.2-7.8,19.1h43.6c-2-5.2-4-10.5-6-15.7s-4-10.3-6-15.1c-1.9-4.8-3.7-9.2-5.3-13.3
			C452.5,348.2,451.2,344.9,450.1,342.3z M696.4,448h-53v-1.7c2.9-0.5,5.6-1.2,8.1-2.3s4.6-2.6,6.4-4.5c0.6-0.7,1-1.7,1.3-3
			s0.5-2.8,0.7-4.5c0.2-1.7,0.3-3.6,0.4-5.5c0.1-1.9,0.1-3.8,0.1-5.7c0-1.6,0-3.8,0.1-6.6c0.1-2.8,0.1-5.8,0.2-9.2
			c0.1-3.3,0.1-6.7,0.1-10.2v-50.4c0-2.1-0.1-4-0.3-5.8c-0.2-1.8-0.4-3.4-0.8-4.9c-0.4-1.5-0.9-2.6-1.6-3.4c-1.6-2-3.6-3.4-6-4.3
			c-2.4-0.9-5.1-1.5-8.1-1.8v-1.7h52.3v1.7c-2.5,0.3-5.1,1-7.9,1.9c-2.8,0.9-5,2.8-6.5,5.6c-1.1,2-1.6,4.5-1.7,7.5
			c-0.1,3-0.1,5.9-0.3,8.5c0,2.9,0,5.8-0.1,8.6s-0.1,5.7-0.1,8.6v58.4c0,3.4,0.1,6.6,0.2,9.8s0.6,5.3,1.6,6.6c1.4,2,3.6,3.5,6.7,4.5
			s5.8,1.7,8.2,1.9V448z M961.4,448h-35.9c-1.1-1-1.8-1.8-2.3-2.4s-1-1.1-1.6-1.8c-0.6-0.7-1.3-1.7-2.2-3.1c-0.9-1.3-2.2-3.3-4.1-6
			c-2.2-3.3-4.2-6.2-5.9-8.8c-1.7-2.6-3.4-5.2-5.2-7.8c-1.8-2.6-3.6-5.1-5.7-7.8c-2-2.6-4.5-5.6-7.3-8.8c-2.3-2.7-4.9-5.2-7.6-7.5
			c-2.7-2.3-5.6-3.8-8.7-4.4c-2.2-0.5-3.9-0.7-5.1-0.7c-1.1,0-2.4-0.1-4-0.2v19.7c0,5.6,0.1,10.3,0.2,14.1c0.1,3.7,0.2,6.9,0.4,9.6
			c0.1,2.7,0.8,4.9,1.9,6.6c0.9,1.5,2.7,3.1,5.4,4.6c2.7,1.6,6.4,2.5,11.2,2.7v1.7h-56v-1.7c2.9-0.5,5.7-1.2,8.4-2.1
			c2.7-0.9,4.8-2.3,6.3-4.2c0.6-0.7,1.1-1.7,1.4-3.1c0.4-1.4,0.6-3,0.8-4.7s0.3-3.6,0.4-5.6c0.1-2,0.2-3.9,0.2-5.8
			c0-1.6,0-3.8,0.1-6.6c0.1-2.8,0.1-5.8,0.2-9.2c0.1-3.3,0.1-6.7,0.1-10.2v-44.1c0-2.1,0-4.2-0.1-6.4c-0.1-2.2-0.2-4.2-0.4-6.1
			s-0.5-3.7-0.9-5.2c-0.4-1.6-1-2.7-1.7-3.4c-1.8-1.9-3.7-3.1-5.9-3.7c-2.2-0.6-4.8-1.2-8-1.7v-1.7h7.2c4,0,8.5,0,13.5-0.1
			c5-0.1,10-0.1,15.1-0.1H878c7.8,0,14.8,0.2,20.8,0.7c6.1,0.5,11.6,2,16.6,4.7c5.1,2.7,9.3,6.3,12.4,10.9
			c3.2,4.6,4.7,10.4,4.7,17.4c0,4.3-0.8,8.2-2.4,11.6s-3.7,6.5-6.3,9.1c-2.6,2.6-5.7,4.9-9.2,6.7c-3.5,1.9-7.2,3.4-11,4.7v0.5
			c2,1,3.9,2.6,5.8,4.5c1.9,2,3.7,4.2,5.4,6.6c3,4.4,6.3,9.2,9.9,14.3c3.6,5.1,6.7,9.6,9.5,13.6c4.3,6,8.5,10.5,12.6,13.3
			c4.1,2.8,8.9,4.6,14.4,5.4V448z M912.5,354.9c0-5.8-1.5-11-4.4-15.5c-2.9-4.5-7.2-8.1-12.8-10.8c-2.8-1.3-5.7-2.2-8.8-2.8
			c-3.1-0.6-6.3-0.9-9.7-0.9c-2.5,0-4.4,0.1-6,0.2c-1.5,0.1-2.7,0.2-3.5,0.3c-0.1,0.7-0.2,1.3-0.4,1.8s-0.2,1.2-0.3,2
			s-0.1,1.9-0.2,3.4c-0.1,1.5-0.1,3.5-0.3,6.2c-0.1,4.1-0.2,8.7-0.3,13.8c-0.1,5.1-0.1,10.1-0.1,14.8v19.2c4.8,0,9.2-0.2,13.4-0.6
			c4.1-0.4,8.1-1.2,12-2.5c3.7-1.2,6.9-2.7,9.6-4.7c2.7-2,4.9-4.2,6.6-6.7c1.7-2.5,2.9-5.2,3.8-8.1S912.5,358,912.5,354.9z
			 M1195,414.7l-8.8,33.3h-107.1v-1.7c2.9-0.5,5.6-1.2,8.1-2.3c2.5-1,4.6-2.5,6.2-4.4c0.6-0.7,1.1-1.7,1.4-3.1s0.7-2.9,1-4.6
			c0.3-1.7,0.5-3.6,0.6-5.5s0.2-3.8,0.2-5.7c0-1.6,0-3.8,0.1-6.6c0.1-2.8,0.1-5.8,0.2-9.2c0.1-3.3,0.1-6.7,0.1-10.2
			c0-3.6,0-7,0-10.1v-34c0-2.1,0-4.2-0.1-6.5c-0.1-2.2-0.2-4.3-0.4-6.3c-0.2-2-0.5-3.7-0.9-5.3s-1-2.7-1.7-3.4
			c-1.8-1.9-3.6-3.1-5.6-3.6c-2-0.5-4.6-1-7.7-1.5v-1.7h96.6l11.9,28.8l-1.8,0.9c-9.5-11.7-18.3-19.6-26.6-23.7
			c-2-0.9-5.7-1.7-11-2.4s-11.9-1-19.6-1c-2.5,0-5,0.1-7.6,0.3c-2.6,0.2-4.5,0.4-5.7,0.6c-0.2,1.9-0.4,5.7-0.6,11.5
			s-0.3,12.6-0.3,20.2c0,4.4,0,8.1,0,11.2s0,5.5,0.1,7.4s0.1,3.4,0.1,4.4c0,0.9,0,1.6,0,1.9c0.6,0,1.8,0,3.5,0c1.8,0,3.8-0.1,6-0.2
			c2.3-0.1,4.6-0.3,6.8-0.4c2.3-0.2,4.2-0.4,5.7-0.8c3.5-0.8,6.4-1.9,8.8-3.3c2.3-1.4,4.2-3.1,5.7-5.1c1.5-2,2.6-4.3,3.5-6.9
			s1.7-5.6,2.4-8.8h2.1v54.9h-2.1c-0.9-3.7-2.4-7.6-4.3-11.5c-1.9-4-3.9-6.9-6-8.9c-1.9-1.6-4.1-3-6.7-4c-2.6-1-5.7-1.7-9.2-1.9
			c-1.8-0.1-3.2-0.2-4.4-0.3c-1.2-0.1-2.3-0.1-3.5-0.1c-1.1,0-2.2,0-3.5,0c-1.2,0-2.7,0-4.6,0c-0.2,1.6-0.4,4-0.4,7.1s0,6.4,0,9.8
			c0,1.5,0,3.3,0,5.2s0,4,0,5.9c0,1.9,0,3.6,0.1,5.3s0.1,3.1,0.1,4.3c0.1,3.7,0.3,7.2,0.6,10.6c0.3,3.3,1,5.8,2,7.4
			c1.1,1.6,3.6,2.8,7.5,3.5c4,0.7,8.3,1,13,1c2,0,4.5-0.1,7.6-0.2c3.1-0.1,6.3-0.4,9.7-0.9c3.7-0.5,7.2-1.4,10.3-2.7
			s6.2-3.2,9.1-5.7c2.9-2.4,5.7-5.4,8.5-9c2.7-3.5,5.6-7.8,8.5-12.8L1195,414.7z"/>
	</g>
</g>
</svg>
