<svg xmlns="http://www.w3.org/2000/svg" width="404" height="251" fill="none" viewBox="0 0 404 251"><path fill="#65E4EA" d="M0 0h404v251H0V0Z"/><path fill="#65E4EA" stroke="#000" stroke-width="4" d="M163.007 146.221a9.762 9.762 0 0 0-.516.057 19.289 19.289 0 0 1-10.678-5.182c-7.739-7.397-8.016-19.668-.618-27.407 7.397-7.739 19.667-8.016 27.407-.619a19.306 19.306 0 0 1 5.943 12.665l.001.085a11.896 11.896 0 0 0 .182 1.761c.194 1.073.609 2.541 1.522 3.925.754 1.141 2.042 1.693 3.003 2.023.836.288 1.83.532 2.779.765l.64.158c2.446.612 4.641 1.301 6.095 2.69 6.354 6.074 6.582 16.15.508 22.504-6.075 6.355-16.15 6.582-22.505.508-1.172-1.12-1.929-2.919-2.799-5.205l-.102-.268c-.378-.995-.786-2.068-1.255-3.045-.512-1.065-1.166-2.165-2.082-3.041-1.779-1.7-3.939-2.233-5.522-2.372a11.534 11.534 0 0 0-2.003-.002Z"/><path fill="#65E4EA" stroke="#000" stroke-width="4" d="M230.447 149.136c-.005.204-.003.38.001.52a19.283 19.283 0 0 1-6.301 10.058c-8.187 6.897-20.417 5.852-27.315-2.336-6.898-8.187-5.852-20.416 2.335-27.314a19.31 19.31 0 0 1 13.231-4.546l.085.008c.101.009.24.02.41.028.338.015.807.02 1.36-.019 1.088-.078 2.592-.332 4.066-1.091 1.216-.626 1.903-1.848 2.335-2.767.376-.8.726-1.762 1.059-2.681l.226-.619c.872-2.366 1.793-4.474 3.331-5.77 6.723-5.664 16.764-4.806 22.428 1.917 5.664 6.723 4.806 16.765-1.917 22.429-1.24 1.045-3.11 1.603-5.477 2.222l-.277.073c-1.03.269-2.141.559-3.162.92-1.114.395-2.278.926-3.248 1.743-1.882 1.585-2.644 3.676-2.953 5.234-.156.79-.206 1.487-.217 1.991Z"/><path fill="#C1FCFF" d="M237.914 128.058a8.384 8.384 0 1 0-10.804-12.823 8.384 8.384 0 0 0 10.804 12.823Zm-22.742 23.695c4.882-4.113 5.505-11.405 1.392-16.287-4.113-4.883-11.406-5.506-16.288-1.393s-5.506 11.406-1.392 16.288c4.113 4.882 11.405 5.506 16.288 1.392Z"/><path fill="#65E4EA" stroke="#000" stroke-width="4" d="M200.984 131.517c-.219.221-.392.411-.518.554a26.682 26.682 0 0 1-15.98 4.149c-14.782-.871-26.058-13.56-25.187-28.342.871-14.781 13.56-26.057 28.341-25.186a26.706 26.706 0 0 1 17.62 8.048l.083.096a15.156 15.156 0 0 0 1.642 1.572c1.092.897 2.715 1.983 4.739 2.573 1.53.446 3.141-.027 4.401-.52 1.077-.42 2.274-1.018 3.451-1.606l.81-.403c3.034-1.499 6.043-2.794 8.954-2.623 12.206.72 21.517 11.197 20.798 23.403-.72 12.205-11.197 21.517-23.403 20.798-2.365-.14-4.848-1.417-7.708-2.99l-.335-.184c-1.261-.695-2.59-1.428-3.895-2.008-1.421-.633-2.963-1.157-4.549-1.25-3.095-.182-5.623 1.068-7.297 2.252a15.07 15.07 0 0 0-1.967 1.667Z"/><path fill="#C1FCFF" d="M227.333 117.348c6.227.367 11.573-4.384 11.94-10.611.367-6.227-4.384-11.573-10.611-11.94-6.227-.367-11.573 4.383-11.94 10.611-.367 6.227 4.384 11.573 10.611 11.94Zm-44.198 2.076c8.586.506 15.956-6.044 16.462-14.63.506-8.586-6.044-15.957-14.63-16.463-8.585-.506-15.956 6.044-16.462 14.631-.506 8.586 6.044 15.956 14.63 16.462Z"/></svg>