<svg width="404" height="251" viewBox="0 0 404 251" fill="none" xmlns="http://www.w3.org/2000/svg">
<path d="M0 0L404 0L404 251L0 251L0 0Z" fill="#65E4EA"/>
<path fill-rule="evenodd" clip-rule="evenodd" d="M235.953 167.9C233.543 166.925 233.542 166.926 233.542 166.927L233.544 166.922L233.558 166.885L233.625 166.712C233.684 166.554 233.773 166.312 233.883 165.993C234.102 165.356 234.406 164.417 234.728 163.239C235.373 160.878 236.084 157.591 236.355 153.881C236.902 146.413 235.652 137.629 229.017 130.993C226.592 128.568 224.343 126.765 222.298 125.432C221.095 124.648 220.756 123.037 221.54 121.834C222.324 120.631 223.934 120.291 225.137 121.075C227.519 122.628 230.045 124.667 232.694 127.316C240.842 135.465 242.142 146.053 241.541 154.261C241.239 158.39 240.452 162.017 239.744 164.61C239.388 165.91 239.05 166.958 238.798 167.689C238.672 168.055 238.567 168.342 238.492 168.542L238.402 168.776L238.376 168.842L238.368 168.863L238.365 168.869L238.364 168.872C238.364 168.873 238.364 168.874 235.953 167.9Z" fill="#013234"/>
<path fill-rule="evenodd" clip-rule="evenodd" d="M200.522 109.388C200.52 109.389 200.52 109.389 200.522 109.388ZM201.145 109.065C201.279 109.001 201.433 108.931 201.606 108.856C202.374 108.527 203.497 108.124 204.875 107.855C207.614 107.321 211.332 107.317 215.356 109.461C219.087 111.449 220.468 114.63 220.927 117.513C221.159 118.969 221.144 120.309 221.068 121.289C221.046 121.567 221.02 121.813 220.994 122.021L173.891 166.043L201.145 109.065ZM223.417 123.315C225.955 123.879 225.955 123.878 225.955 123.877L225.956 123.875L225.957 123.869L225.961 123.853L225.97 123.811L225.996 123.678C226.017 123.568 226.044 123.418 226.074 123.23C226.133 122.856 226.202 122.331 226.252 121.692C226.351 120.421 226.375 118.655 226.062 116.695C225.433 112.746 223.395 107.852 217.801 104.872C212.499 102.047 207.514 102.043 203.88 102.751C202.072 103.104 200.592 103.632 199.553 104.079C199.032 104.303 198.618 104.508 198.324 104.663C198.177 104.741 198.059 104.806 197.973 104.855L197.867 104.917L197.832 104.938L197.819 104.946L197.814 104.949L197.812 104.95C197.811 104.951 197.81 104.952 199.171 107.166L197.81 104.952C197.383 105.214 197.042 105.593 196.826 106.045L163.255 176.228C162.715 177.356 163.055 178.708 164.063 179.447C165.071 180.186 166.462 180.103 167.376 179.25L225.192 125.214C225.575 124.857 225.841 124.391 225.955 123.879L223.417 123.315Z" fill="#013234"/>
<path fill-rule="evenodd" clip-rule="evenodd" d="M182.796 74.3225C182.796 74.3234 182.795 74.3243 182.795 74.3251L180.385 73.3508C182.795 74.3251 182.795 74.3244 182.796 74.3237L182.794 74.3283L182.779 74.3655L182.713 74.5383C182.654 74.6965 182.565 74.9387 182.455 75.257C182.235 75.8941 181.932 76.8334 181.61 78.011C180.965 80.3726 180.254 83.6593 179.983 87.3688C179.436 94.837 180.686 103.622 187.321 110.257C194.374 117.31 199.936 119.118 203.455 119.38C205.239 119.514 206.592 119.258 207.46 118.997C207.896 118.866 208.212 118.733 208.4 118.644C208.494 118.6 208.555 118.567 208.583 118.552C208.589 118.549 208.593 118.546 208.596 118.545C208.596 118.545 208.596 118.545 208.596 118.545C209.807 117.804 211.391 118.171 212.151 119.374C212.918 120.588 212.556 122.194 211.342 122.961L209.953 120.762C211.342 122.961 211.34 122.962 211.338 122.963L211.333 122.966L211.324 122.971L211.303 122.984L211.25 123.017C211.209 123.041 211.159 123.07 211.098 123.103C210.977 123.17 210.816 123.254 210.616 123.348C210.217 123.537 209.661 123.766 208.957 123.977C207.547 124.401 205.554 124.752 203.068 124.566C198.049 124.191 191.375 121.665 183.644 113.934C175.495 105.785 174.196 95.1977 174.796 86.9894C175.098 82.8607 175.885 79.2332 176.594 76.6401C176.949 75.3404 177.287 74.2923 177.539 73.5612C177.666 73.1955 177.77 72.9085 177.846 72.7084L177.935 72.4743L177.961 72.4079L177.969 72.3877L177.972 72.3808L177.973 72.3783C177.974 72.3772 177.974 72.3762 180.36 73.3408L177.974 72.3762C178.512 71.045 180.028 70.402 181.359 70.9402C182.689 71.478 183.332 72.9919 182.796 74.3225Z" fill="#013234"/>
<path d="M209.545 122.394C207.899 124.745 205.611 125.984 204.435 125.16C203.259 124.337 203.641 121.763 205.288 119.412C206.935 117.06 209.223 115.822 210.399 116.645C211.574 117.469 211.192 120.042 209.545 122.394Z" fill="#65E4EA"/>
<path fill-rule="evenodd" clip-rule="evenodd" d="M205.907 118.613C205.694 118.862 205.486 119.129 205.288 119.412C205.09 119.695 204.91 119.981 204.749 120.267C203.572 122.357 203.401 124.436 204.435 125.16C205.469 125.885 207.364 125.013 208.926 123.193C209.14 122.944 209.347 122.677 209.546 122.394C209.744 122.111 209.924 121.825 210.085 121.539C211.262 119.449 211.433 117.37 210.399 116.645C209.364 115.921 207.469 116.792 205.907 118.613ZM209.289 129.541C207.821 130.336 204.522 131.57 201.452 129.42C198.382 127.269 198.414 123.748 198.659 122.096C198.955 120.1 199.843 118.122 201.029 116.429C202.215 114.735 203.77 113.226 205.544 112.265C207.013 111.47 210.311 110.236 213.382 112.386C216.452 114.536 216.419 118.058 216.174 119.71C215.878 121.706 214.991 123.683 213.805 125.377C212.619 127.07 211.063 128.58 209.289 129.541Z" fill="#013234"/>
</svg>
