<svg xmlns="http://www.w3.org/2000/svg" width="1990" height="480" fill="none" viewBox="0 0 1990 480"><path fill="url(#a)" d="M.5.5h1989v479H.5z"/><path stroke="#000" d="M.5.5h1989v479H.5z"/><path stroke="#000" stroke-opacity=".2" d="M.5.5h1989v479H.5z"/><circle cx="128" cy="112" r="86" stroke="#65E4EA" stroke-width="8"/><path stroke="#65E4EA" stroke-linecap="round" stroke-linejoin="round" stroke-width="8" d="m165.174 82.652-54.452 54.783-23.809-27.229"/><path fill="#65E4EA" d="M325.091 168.705c-8.939 0-16.629-1.894-23.068-5.682-6.402-3.826-11.326-9.129-14.773-15.909-3.409-6.781-5.114-14.584-5.114-23.409 0-8.94 1.724-16.781 5.171-23.523 3.485-6.78 8.428-12.065 14.829-15.853 6.402-3.825 14.016-5.738 22.841-5.738 7.614 0 14.281 1.383 20 4.148 5.72 2.765 10.246 6.647 13.58 11.647 3.333 5 5.17 10.872 5.511 17.614h-22.841c-.644-4.356-2.348-7.86-5.113-10.511-2.728-2.69-6.307-4.035-10.739-4.035-3.75 0-7.027 1.023-9.83 3.069-2.765 2.007-4.924 4.943-6.477 8.807-1.553 3.863-2.329 8.541-2.329 14.034 0 5.568.757 10.303 2.272 14.204 1.553 3.902 3.731 6.875 6.534 8.921 2.803 2.045 6.08 3.068 9.83 3.068 2.765 0 5.246-.568 7.443-1.705 2.235-1.136 4.072-2.784 5.512-4.943 1.477-2.197 2.443-4.829 2.897-7.898h22.841c-.379 6.667-2.197 12.538-5.454 17.614-3.22 5.038-7.671 8.977-13.353 11.818-5.681 2.841-12.405 4.262-20.17 4.262Zm78.679-52.16V167h-24.205V50.636h23.523v44.489h1.023c1.969-5.151 5.151-9.186 9.545-12.102 4.394-2.955 9.906-4.432 16.534-4.432 6.061 0 11.345 1.326 15.853 3.977 4.545 2.614 8.068 6.383 10.568 11.307 2.538 4.886 3.788 10.739 3.75 17.557V167h-24.205v-51.25c.038-5.379-1.326-9.564-4.091-12.557-2.727-2.992-6.553-4.489-11.477-4.489-3.295 0-6.212.701-8.75 2.103-2.5 1.401-4.47 3.447-5.909 6.136-1.402 2.652-2.121 5.852-2.159 9.602Zm115.412 52.16c-8.977 0-16.705-1.819-23.182-5.455-6.439-3.674-11.402-8.864-14.886-15.568-3.485-6.743-5.228-14.716-5.228-23.921 0-8.977 1.743-16.856 5.228-23.636 3.484-6.78 8.39-12.064 14.716-15.852 6.363-3.788 13.825-5.682 22.386-5.682 5.757 0 11.117.928 16.079 2.784 5 1.818 9.357 4.564 13.069 8.239 3.75 3.674 6.666 8.295 8.75 13.863 2.083 5.531 3.125 12.008 3.125 19.432v6.648h-73.694v-15h50.91c0-3.485-.758-6.572-2.273-9.262a16.285 16.285 0 0 0-6.307-6.306c-2.652-1.553-5.739-2.33-9.261-2.33-3.675 0-6.932.852-9.773 2.557a17.93 17.93 0 0 0-6.591 6.761c-1.591 2.803-2.405 5.928-2.443 9.375v14.262c0 4.318.795 8.049 2.386 11.193 1.629 3.144 3.921 5.568 6.875 7.273 2.955 1.704 6.459 2.556 10.512 2.556 2.689 0 5.151-.378 7.386-1.136 2.235-.758 4.148-1.894 5.739-3.409 1.59-1.515 2.803-3.371 3.636-5.568L558.727 142c-1.136 5.379-3.466 10.076-6.988 14.091-3.485 3.977-7.993 7.083-13.523 9.318-5.493 2.197-11.837 3.296-19.034 3.296Zm95.284 0c-8.939 0-16.629-1.894-23.068-5.682-6.402-3.826-11.326-9.129-14.773-15.909-3.409-6.781-5.114-14.584-5.114-23.409 0-8.94 1.724-16.781 5.171-23.523 3.485-6.78 8.428-12.065 14.829-15.853 6.402-3.825 14.016-5.738 22.841-5.738 7.614 0 14.281 1.383 20 4.148 5.72 2.765 10.246 6.647 13.58 11.647 3.333 5 5.17 10.872 5.511 17.614h-22.841c-.644-4.356-2.348-7.86-5.113-10.511-2.728-2.69-6.307-4.035-10.739-4.035-3.75 0-7.027 1.023-9.83 3.069-2.765 2.007-4.924 4.943-6.477 8.807-1.553 3.863-2.329 8.541-2.329 14.034 0 5.568.757 10.303 2.272 14.204 1.553 3.902 3.731 6.875 6.534 8.921 2.803 2.045 6.08 3.068 9.83 3.068 2.765 0 5.246-.568 7.443-1.705 2.235-1.136 4.072-2.784 5.512-4.943 1.477-2.197 2.443-4.829 2.897-7.898h22.841c-.379 6.667-2.197 12.538-5.454 17.614-3.22 5.038-7.671 8.977-13.353 11.818-5.681 2.841-12.405 4.262-20.17 4.262Zm76.406-26.819.057-29.034h3.523l27.954-33.125h27.784l-37.556 43.864h-5.739l-16.023 18.295ZM668.94 167V50.636h24.205V167H668.94Zm54.546 0-25.682-38.011 16.136-17.103L751.838 167h-28.352Z"/><defs><linearGradient id="a" x1="995" x2="995" y1="-106.873" y2="381.274" gradientUnits="userSpaceOnUse"><stop stop-color="#65DDEA" stop-opacity=".4"/><stop offset="1" stop-color="#65DDEA" stop-opacity="0"/></linearGradient></defs></svg>