<svg width="752" height="243" viewBox="0 0 752 243" fill="none" xmlns="http://www.w3.org/2000/svg">
<mask id="mask0_1045_863" style="mask-type:alpha" maskUnits="userSpaceOnUse" x="0" y="0" width="752" height="243">
<rect width="752" height="243" fill="#65E4EA"/>
</mask>
<g mask="url(#mask0_1045_863)">
<rect width="752" height="243" fill="#65E4EA"/>
<circle cx="692" cy="201" r="101" stroke="#013234" stroke-width="8"/>
<path d="M735.37 166.761L671.842 230.674L644.065 198.906" stroke="#013234" stroke-width="8" stroke-linecap="round" stroke-linejoin="round"/>
<path d="M45.8182 232.278C39.1136 232.278 33.3466 230.858 28.517 228.017C23.7159 225.148 20.0227 221.17 17.4375 216.085C14.8807 211 13.6023 205.148 13.6023 198.528C13.6023 191.824 14.8949 185.943 17.4801 180.886C20.0938 175.801 23.8011 171.838 28.6023 168.997C33.4034 166.128 39.1136 164.693 45.733 164.693C51.4432 164.693 56.4432 165.73 60.733 167.804C65.0227 169.878 68.4176 172.79 70.9176 176.54C73.4176 180.29 74.7955 184.693 75.0511 189.75H57.9205C57.4375 186.483 56.1591 183.855 54.0852 181.866C52.0398 179.849 49.3551 178.841 46.0312 178.841C43.2188 178.841 40.7614 179.608 38.6591 181.142C36.5852 182.648 34.9659 184.849 33.8011 187.747C32.6364 190.645 32.054 194.153 32.054 198.273C32.054 202.449 32.6222 206 33.7585 208.926C34.9233 211.852 36.5568 214.082 38.6591 215.616C40.7614 217.151 43.2188 217.918 46.0312 217.918C48.1051 217.918 49.9659 217.491 51.6136 216.639C53.2898 215.787 54.6676 214.551 55.7472 212.932C56.8551 211.284 57.5795 209.31 57.9205 207.009H75.0511C74.767 212.009 73.4034 216.412 70.9602 220.219C68.5455 223.997 65.2074 226.952 60.946 229.082C56.6847 231.213 51.642 232.278 45.8182 232.278ZM104.827 193.159V231H86.674V143.727H104.316V177.094H105.083C106.56 173.23 108.947 170.205 112.242 168.017C115.538 165.801 119.671 164.693 124.643 164.693C129.188 164.693 133.151 165.688 136.532 167.676C139.941 169.636 142.583 172.463 144.458 176.156C146.362 179.821 147.299 184.21 147.271 189.324V231H129.117V192.562C129.146 188.528 128.123 185.389 126.049 183.145C124.004 180.901 121.134 179.778 117.441 179.778C114.969 179.778 112.782 180.304 110.879 181.355C109.004 182.406 107.526 183.94 106.447 185.957C105.396 187.946 104.856 190.347 104.827 193.159ZM191.386 232.278C184.653 232.278 178.858 230.915 174 228.188C169.17 225.432 165.449 221.54 162.835 216.511C160.222 211.455 158.915 205.474 158.915 198.571C158.915 191.838 160.222 185.929 162.835 180.844C165.449 175.759 169.128 171.795 173.872 168.955C178.645 166.114 184.241 164.693 190.662 164.693C194.98 164.693 199 165.389 202.722 166.781C206.472 168.145 209.739 170.205 212.523 172.96C215.335 175.716 217.523 179.182 219.085 183.358C220.648 187.506 221.429 192.364 221.429 197.932V202.918H166.159V191.668H204.341C204.341 189.054 203.773 186.739 202.636 184.722C201.5 182.705 199.923 181.128 197.906 179.991C195.918 178.827 193.602 178.244 190.96 178.244C188.205 178.244 185.761 178.884 183.631 180.162C181.528 181.412 179.881 183.102 178.688 185.233C177.494 187.335 176.884 189.679 176.855 192.264V202.96C176.855 206.199 177.452 208.997 178.645 211.355C179.866 213.713 181.585 215.531 183.801 216.81C186.017 218.088 188.645 218.727 191.685 218.727C193.702 218.727 195.548 218.443 197.224 217.875C198.901 217.307 200.335 216.455 201.528 215.318C202.722 214.182 203.631 212.79 204.256 211.142L221.045 212.25C220.193 216.284 218.446 219.807 215.804 222.818C213.19 225.801 209.81 228.131 205.662 229.807C201.543 231.455 196.784 232.278 191.386 232.278ZM262.849 232.278C256.145 232.278 250.378 230.858 245.548 228.017C240.747 225.148 237.054 221.17 234.469 216.085C231.912 211 230.634 205.148 230.634 198.528C230.634 191.824 231.926 185.943 234.511 180.886C237.125 175.801 240.832 171.838 245.634 168.997C250.435 166.128 256.145 164.693 262.764 164.693C268.474 164.693 273.474 165.73 277.764 167.804C282.054 169.878 285.449 172.79 287.949 176.54C290.449 180.29 291.827 184.693 292.082 189.75H274.952C274.469 186.483 273.19 183.855 271.116 181.866C269.071 179.849 266.386 178.841 263.062 178.841C260.25 178.841 257.793 179.608 255.69 181.142C253.616 182.648 251.997 184.849 250.832 187.747C249.668 190.645 249.085 194.153 249.085 198.273C249.085 202.449 249.653 206 250.79 208.926C251.955 211.852 253.588 214.082 255.69 215.616C257.793 217.151 260.25 217.918 263.062 217.918C265.136 217.918 266.997 217.491 268.645 216.639C270.321 215.787 271.699 214.551 272.778 212.932C273.886 211.284 274.611 209.31 274.952 207.009H292.082C291.798 212.009 290.435 216.412 287.991 220.219C285.577 223.997 282.239 226.952 277.977 229.082C273.716 231.213 268.673 232.278 262.849 232.278ZM320.154 212.165L320.197 190.389H322.839L343.805 165.545H364.643L336.475 198.443H332.171L320.154 212.165ZM303.705 231V143.727H321.859V231H303.705ZM344.614 231L325.353 202.491L337.455 189.665L365.879 231H344.614Z" fill="#013234"/>
<path d="M28.517 228.017L28.004 228.875L28.01 228.879L28.517 228.017ZM17.4375 216.085L16.5441 216.534L16.5461 216.538L17.4375 216.085ZM17.4801 180.886L16.5907 180.429L16.5897 180.431L17.4801 180.886ZM28.6023 168.997L29.1115 169.858L29.1153 169.856L28.6023 168.997ZM60.733 167.804L61.1682 166.904L61.1682 166.904L60.733 167.804ZM75.0511 189.75V190.75H76.103L76.0499 189.7L75.0511 189.75ZM57.9205 189.75L56.9312 189.896L57.0574 190.75H57.9205V189.75ZM54.0852 181.866L53.383 182.579L53.3931 182.588L54.0852 181.866ZM38.6591 181.142L39.2466 181.951L39.2486 181.95L38.6591 181.142ZM33.7585 208.926L32.8263 209.288L32.8294 209.296L33.7585 208.926ZM38.6591 215.616L39.2486 214.809L39.2486 214.809L38.6591 215.616ZM51.6136 216.639L51.1604 215.748L51.1542 215.751L51.6136 216.639ZM55.7472 212.932L54.9173 212.374L54.9151 212.377L55.7472 212.932ZM57.9205 207.009V206.009H57.0577L56.9313 206.862L57.9205 207.009ZM75.0511 207.009L76.0495 207.065L76.1096 206.009H75.0511V207.009ZM70.9602 220.219L70.1186 219.679L70.1176 219.68L70.9602 220.219ZM60.946 229.082L60.4988 228.188L60.4988 228.188L60.946 229.082ZM45.8182 231.278C39.2568 231.278 33.6722 229.889 29.0241 227.155L28.01 228.879C33.021 231.827 38.9705 233.278 45.8182 233.278V231.278ZM29.03 227.159C24.3941 224.388 20.8305 220.553 18.3289 215.632L16.5461 216.538C19.2149 221.788 23.0377 225.907 28.004 228.875L29.03 227.159ZM18.3309 215.636C15.8548 210.711 14.6023 205.017 14.6023 198.528H12.6023C12.6023 205.278 13.9066 211.289 16.5441 216.534L18.3309 215.636ZM14.6023 198.528C14.6023 191.954 15.8692 186.234 18.3705 181.342L16.5897 180.431C13.9205 185.652 12.6023 191.694 12.6023 198.528H14.6023ZM18.3695 181.343C20.8993 176.421 24.4768 172.6 29.1115 169.858L28.093 168.137C23.1255 171.076 19.2882 175.181 16.5907 180.429L18.3695 181.343ZM29.1153 169.856C33.735 167.095 39.2609 165.693 45.733 165.693V163.693C38.9664 163.693 33.0719 165.161 28.0893 168.139L29.1153 169.856ZM45.733 165.693C51.322 165.693 56.168 166.708 60.2977 168.704L61.1682 166.904C56.7184 164.752 51.5644 163.693 45.733 163.693V165.693ZM60.2977 168.704C64.4363 170.705 67.6903 173.502 70.0856 177.094L71.7497 175.985C69.1449 172.078 65.6092 169.051 61.1682 166.904L60.2977 168.704ZM70.0856 177.094C72.4737 180.677 73.8047 184.901 74.0524 189.8L76.0499 189.7C75.7862 184.485 74.3616 179.903 71.7497 175.985L70.0856 177.094ZM75.0511 188.75H57.9205V190.75H75.0511V188.75ZM58.9097 189.604C58.3994 186.152 57.0347 183.309 54.7773 181.145L53.3931 182.588C55.2835 184.401 56.4756 186.814 56.9312 189.896L58.9097 189.604ZM54.7874 181.154C52.5253 178.924 49.5733 177.841 46.0312 177.841V179.841C49.1369 179.841 51.5543 180.775 53.3831 182.579L54.7874 181.154ZM46.0312 177.841C43.0249 177.841 40.3571 178.665 38.0696 180.334L39.2486 181.95C41.1656 180.551 43.4126 179.841 46.0312 179.841V177.841ZM38.0716 180.333C35.8152 181.971 34.0928 184.34 32.8733 187.374L34.729 188.12C35.839 185.359 37.3552 183.324 39.2466 181.951L38.0716 180.333ZM32.8733 187.374C31.6483 190.422 31.054 194.064 31.054 198.273H33.054C33.054 194.243 33.6244 190.868 34.729 188.12L32.8733 187.374ZM31.054 198.273C31.054 202.534 31.633 206.215 32.8263 209.288L34.6907 208.564C33.6113 205.785 33.054 202.364 33.054 198.273H31.054ZM32.8294 209.296C34.0491 212.36 35.7859 214.758 38.0696 216.424L39.2486 214.809C37.3278 213.407 35.7974 211.344 34.6876 208.556L32.8294 209.296ZM38.0696 216.424C40.3571 218.094 43.0249 218.918 46.0312 218.918V216.918C43.4126 216.918 41.1656 216.208 39.2486 214.809L38.0696 216.424ZM46.0312 218.918C48.2459 218.918 50.2673 218.461 52.0731 217.527L51.1542 215.751C49.6645 216.522 47.9643 216.918 46.0312 216.918V218.918ZM52.0669 217.531C53.9016 216.598 55.4079 215.244 56.5792 213.487L54.9151 212.377C53.9274 213.859 52.678 214.976 51.1604 215.748L52.0669 217.531ZM56.577 213.49C57.7811 211.699 58.5506 209.578 58.9097 207.155L56.9313 206.862C56.6084 209.041 55.9291 210.869 54.9173 212.374L56.577 213.49ZM57.9205 208.009H75.0511V206.009H57.9205V208.009ZM74.0527 206.952C73.7774 211.799 72.4591 216.032 70.1186 219.679L71.8018 220.759C74.3477 216.792 75.7567 212.218 76.0495 207.065L74.0527 206.952ZM70.1176 219.68C67.8062 223.297 64.6092 226.133 60.4988 228.188L61.3932 229.977C65.8056 227.771 69.2847 224.697 71.8028 220.757L70.1176 219.68ZM60.4988 228.188C56.4038 230.235 51.5208 231.278 45.8182 231.278V233.278C51.7633 233.278 56.9655 232.191 61.3932 229.977L60.4988 228.188ZM104.827 193.159L103.827 193.149V193.159H104.827ZM104.827 231V232H105.827V231H104.827ZM86.674 231H85.674V232H86.674V231ZM86.674 143.727V142.727H85.674V143.727H86.674ZM104.316 143.727H105.316V142.727H104.316V143.727ZM104.316 177.094H103.316V178.094H104.316V177.094ZM105.083 177.094V178.094H105.771L106.017 177.451L105.083 177.094ZM112.242 168.017L112.795 168.85L112.8 168.847L112.242 168.017ZM136.532 167.676L136.025 168.538L136.033 168.543L136.532 167.676ZM144.458 176.156L143.566 176.609L143.571 176.617L144.458 176.156ZM147.271 189.324L146.271 189.318V189.324H147.271ZM147.271 231V232H148.271V231H147.271ZM129.117 231H128.117V232H129.117V231ZM129.117 192.562L128.117 192.555V192.562H129.117ZM126.049 183.145L125.31 183.819L125.315 183.824L126.049 183.145ZM110.879 181.355L110.395 180.48L110.39 180.483L110.879 181.355ZM106.447 185.957L105.565 185.486L105.563 185.49L106.447 185.957ZM103.827 193.159V231H105.827V193.159H103.827ZM104.827 230H86.674V232H104.827V230ZM87.674 231V143.727H85.674V231H87.674ZM86.674 144.727H104.316V142.727H86.674V144.727ZM103.316 143.727V177.094H105.316V143.727H103.316ZM104.316 178.094H105.083V176.094H104.316V178.094ZM106.017 177.451C107.424 173.772 109.681 170.917 112.795 168.85L111.689 167.184C108.212 169.492 105.697 172.688 104.149 176.737L106.017 177.451ZM112.8 168.847C115.893 166.767 119.82 165.693 124.643 165.693V163.693C119.523 163.693 115.182 164.835 111.684 167.187L112.8 168.847ZM124.643 165.693C129.039 165.693 132.821 166.653 136.025 168.538L137.039 166.814C133.482 164.722 129.338 163.693 124.643 163.693V165.693ZM136.033 168.543C139.265 170.401 141.775 173.079 143.566 176.609L145.35 175.704C143.392 171.847 140.617 168.872 137.03 166.809L136.033 168.543ZM143.571 176.617C145.383 180.108 146.298 184.329 146.271 189.318L148.271 189.329C148.3 184.092 147.34 179.535 145.346 175.695L143.571 176.617ZM146.271 189.324V231H148.271V189.324H146.271ZM147.271 230H129.117V232H147.271V230ZM130.117 231V192.562H128.117V231H130.117ZM130.117 192.57C130.147 188.365 129.079 184.95 126.783 182.466L125.315 183.824C127.167 185.828 128.144 188.692 128.117 192.555L130.117 192.57ZM126.788 182.471C124.513 179.975 121.35 178.778 117.441 178.778V180.778C120.919 180.778 123.494 181.826 125.31 183.818L126.788 182.471ZM117.441 178.778C114.824 178.778 112.466 179.336 110.395 180.48L111.362 182.23C113.098 181.272 115.115 180.778 117.441 180.778V178.778ZM110.39 180.483C108.337 181.633 106.729 183.312 105.565 185.486L107.328 186.429C108.324 184.569 109.67 183.179 111.368 182.227L110.39 180.483ZM105.563 185.49C104.421 187.651 103.857 190.216 103.827 193.149L105.827 193.169C105.855 190.477 106.371 188.241 107.331 186.425L105.563 185.49ZM174 228.188L173.504 229.056L173.51 229.059L174 228.188ZM162.835 216.511L161.947 216.971L161.948 216.973L162.835 216.511ZM162.835 180.844L161.946 180.387L161.946 180.387L162.835 180.844ZM173.872 168.955L173.361 168.095L173.358 168.097L173.872 168.955ZM202.722 166.781L202.371 167.718L202.38 167.721L202.722 166.781ZM212.523 172.96L211.819 173.671L211.823 173.675L212.523 172.96ZM219.085 183.358L218.149 183.708L218.149 183.71L219.085 183.358ZM221.429 202.918V203.918H222.429V202.918H221.429ZM166.159 202.918H165.159V203.918H166.159V202.918ZM166.159 191.668V190.668H165.159V191.668H166.159ZM204.341 191.668V192.668H205.341V191.668H204.341ZM202.636 184.722L201.765 185.212L201.765 185.212L202.636 184.722ZM197.906 179.991L197.401 180.854L197.408 180.859L197.415 180.863L197.906 179.991ZM183.631 180.162L184.142 181.021L184.145 181.019L183.631 180.162ZM178.688 185.233L179.557 185.727L179.56 185.722L178.688 185.233ZM176.855 192.264L175.855 192.253V192.264H176.855ZM178.645 211.355L177.753 211.807L177.757 211.815L178.645 211.355ZM197.224 217.875L196.903 216.928L196.903 216.928L197.224 217.875ZM201.528 215.318L200.839 214.594L200.839 214.594L201.528 215.318ZM204.256 211.142L204.322 210.144L203.583 210.095L203.321 210.787L204.256 211.142ZM221.045 212.25L222.024 212.457L222.262 211.328L221.111 211.252L221.045 212.25ZM215.804 222.818L215.052 222.159L215.052 222.159L215.804 222.818ZM205.662 229.807L206.033 230.735L206.037 230.734L205.662 229.807ZM191.386 231.278C184.789 231.278 179.17 229.943 174.49 227.316L173.51 229.059C178.546 231.887 184.518 233.278 191.386 233.278V231.278ZM174.496 227.319C169.836 224.66 166.249 220.911 163.723 216.05L161.948 216.973C164.648 222.168 168.504 226.203 173.504 229.056L174.496 227.319ZM163.724 216.052C161.197 211.164 159.915 205.348 159.915 198.571H157.915C157.915 205.601 159.246 211.745 161.947 216.971L163.724 216.052ZM159.915 198.571C159.915 191.969 161.196 186.222 163.725 181.301L161.946 180.387C159.248 185.636 157.915 191.707 157.915 198.571H159.915ZM163.725 181.301C166.256 176.376 169.807 172.554 174.386 169.812L173.358 168.097C168.448 171.037 164.642 175.141 161.946 180.387L163.725 181.301ZM174.384 169.814C178.979 167.079 184.393 165.693 190.662 165.693V163.693C184.09 163.693 178.311 165.149 173.361 168.095L174.384 169.814ZM190.662 165.693C194.871 165.693 198.771 166.371 202.371 167.718L203.072 165.845C199.229 164.407 195.089 163.693 190.662 163.693V165.693ZM202.38 167.721C205.997 169.036 209.14 171.019 211.819 173.671L213.226 172.25C210.338 169.39 206.946 167.253 203.063 165.841L202.38 167.721ZM211.823 173.675C214.518 176.315 216.631 179.651 218.149 183.708L220.022 183.008C218.415 178.712 216.153 175.117 213.223 172.246L211.823 173.675ZM218.149 183.71C219.66 187.721 220.429 192.454 220.429 197.932H222.429C222.429 192.273 221.635 187.291 220.021 183.005L218.149 183.71ZM220.429 197.932V202.918H222.429V197.932H220.429ZM221.429 201.918H166.159V203.918H221.429V201.918ZM167.159 202.918V191.668H165.159V202.918H167.159ZM166.159 192.668H204.341V190.668H166.159V192.668ZM205.341 191.668C205.341 188.905 204.739 186.416 203.508 184.231L201.765 185.212C202.807 187.061 203.341 189.203 203.341 191.668H205.341ZM203.508 184.231C202.282 182.055 200.573 180.346 198.397 179.12L197.415 180.863C199.273 181.909 200.718 183.355 201.765 185.212L203.508 184.231ZM198.412 179.129C196.248 177.862 193.753 177.244 190.96 177.244V179.244C193.451 179.244 195.587 179.792 197.401 180.854L198.412 179.129ZM190.96 177.244C188.044 177.244 185.419 177.923 183.116 179.304L184.145 181.019C186.104 179.844 188.365 179.244 190.96 179.244V177.244ZM183.12 179.302C180.867 180.642 179.094 182.46 177.815 184.744L179.56 185.722C180.667 183.744 182.19 182.182 184.142 181.021L183.12 179.302ZM177.818 184.739C176.535 186.999 175.885 189.511 175.855 192.253L177.855 192.275C177.882 189.847 178.453 187.671 179.557 185.727L177.818 184.739ZM175.855 192.264V202.96H177.855V192.264H175.855ZM175.855 202.96C175.855 206.321 176.474 209.281 177.753 211.807L179.537 210.904C178.429 208.714 177.855 206.077 177.855 202.96H175.855ZM177.757 211.815C179.063 214.336 180.913 216.298 183.301 217.676L184.301 215.943C182.257 214.764 180.67 213.09 179.533 210.895L177.757 211.815ZM183.301 217.676C185.696 219.057 188.503 219.727 191.685 219.727V217.727C188.787 217.727 186.338 217.119 184.301 215.943L183.301 217.676ZM191.685 219.727C193.796 219.727 195.753 219.43 197.545 218.822L196.903 216.928C195.344 217.457 193.608 217.727 191.685 217.727V219.727ZM197.545 218.822C199.349 218.211 200.912 217.286 202.218 216.042L200.839 214.594C199.758 215.623 198.452 216.403 196.903 216.928L197.545 218.822ZM202.218 216.042C203.527 214.796 204.516 213.274 205.191 211.497L203.321 210.787C202.745 212.305 201.916 213.568 200.839 214.594L202.218 216.042ZM204.19 212.14L220.98 213.248L221.111 211.252L204.322 210.144L204.19 212.14ZM220.067 212.043C219.249 215.915 217.578 219.28 215.052 222.159L216.556 223.478C219.314 220.333 221.137 216.654 222.024 212.457L220.067 212.043ZM215.052 222.159C212.554 225.01 209.309 227.255 205.287 228.88L206.037 230.734C210.311 229.007 213.827 226.592 216.556 223.477L215.052 222.159ZM205.291 228.878C201.312 230.47 196.684 231.278 191.386 231.278V233.278C196.885 233.278 201.773 232.439 206.033 230.735L205.291 228.878ZM245.548 228.017L245.035 228.875L245.041 228.879L245.548 228.017ZM234.469 216.085L233.575 216.534L233.577 216.538L234.469 216.085ZM234.511 180.886L233.622 180.429L233.621 180.431L234.511 180.886ZM245.634 168.997L246.143 169.858L246.147 169.856L245.634 168.997ZM277.764 167.804L278.199 166.904L278.199 166.904L277.764 167.804ZM292.082 189.75V190.75H293.134L293.081 189.7L292.082 189.75ZM274.952 189.75L273.962 189.896L274.089 190.75H274.952V189.75ZM271.116 181.866L270.414 182.579L270.424 182.588L271.116 181.866ZM255.69 181.142L256.278 181.951L256.28 181.95L255.69 181.142ZM250.79 208.926L249.858 209.288L249.861 209.296L250.79 208.926ZM255.69 215.616L256.28 214.809L256.28 214.809L255.69 215.616ZM268.645 216.639L268.192 215.748L268.185 215.751L268.645 216.639ZM272.778 212.932L271.949 212.374L271.946 212.377L272.778 212.932ZM274.952 207.009V206.009H274.089L273.963 206.862L274.952 207.009ZM292.082 207.009L293.081 207.065L293.141 206.009H292.082V207.009ZM287.991 220.219L287.15 219.679L287.149 219.68L287.991 220.219ZM277.977 229.082L277.53 228.188L277.53 228.188L277.977 229.082ZM262.849 231.278C256.288 231.278 250.703 229.889 246.055 227.155L245.041 228.879C250.052 231.827 256.002 233.278 262.849 233.278V231.278ZM246.061 227.159C241.425 224.388 237.862 220.553 235.36 215.632L233.577 216.538C236.246 221.788 240.069 225.907 245.035 228.875L246.061 227.159ZM235.362 215.636C232.886 210.711 231.634 205.017 231.634 198.528H229.634C229.634 205.278 230.938 211.289 233.575 216.534L235.362 215.636ZM231.634 198.528C231.634 191.954 232.9 186.234 235.402 181.342L233.621 180.431C230.952 185.652 229.634 191.694 229.634 198.528H231.634ZM235.401 181.343C237.931 176.421 241.508 172.6 246.143 169.858L245.124 168.137C240.157 171.076 236.319 175.181 233.622 180.429L235.401 181.343ZM246.147 169.856C250.766 167.095 256.292 165.693 262.764 165.693V163.693C255.998 163.693 250.103 165.161 245.121 168.139L246.147 169.856ZM262.764 165.693C268.353 165.693 273.199 166.708 277.329 168.704L278.199 166.904C273.75 164.752 268.596 163.693 262.764 163.693V165.693ZM277.329 168.704C281.468 170.705 284.722 173.502 287.117 177.094L288.781 175.985C286.176 172.078 282.64 169.051 278.199 166.904L277.329 168.704ZM287.117 177.094C289.505 180.677 290.836 184.901 291.084 189.8L293.081 189.7C292.817 184.485 291.393 179.903 288.781 175.985L287.117 177.094ZM292.082 188.75H274.952V190.75H292.082V188.75ZM275.941 189.604C275.431 186.152 274.066 183.309 271.809 181.145L270.424 182.588C272.315 184.401 273.507 186.814 273.962 189.896L275.941 189.604ZM271.819 181.154C269.557 178.924 266.605 177.841 263.062 177.841V179.841C266.168 179.841 268.586 180.775 270.414 182.579L271.819 181.154ZM263.062 177.841C260.056 177.841 257.388 178.665 255.101 180.334L256.28 181.95C258.197 180.551 260.444 179.841 263.062 179.841V177.841ZM255.103 180.333C252.846 181.971 251.124 184.34 249.905 187.374L251.76 188.12C252.87 185.359 254.386 183.324 256.278 181.951L255.103 180.333ZM249.905 187.374C248.68 190.422 248.085 194.064 248.085 198.273H250.085C250.085 194.243 250.656 190.868 251.76 188.12L249.905 187.374ZM248.085 198.273C248.085 202.534 248.664 206.215 249.858 209.288L251.722 208.564C250.643 205.785 250.085 202.364 250.085 198.273H248.085ZM249.861 209.296C251.08 212.36 252.817 214.758 255.101 216.424L256.28 214.809C254.359 213.407 252.829 211.344 251.719 208.556L249.861 209.296ZM255.101 216.424C257.388 218.094 260.056 218.918 263.062 218.918V216.918C260.444 216.918 258.197 216.208 256.28 214.809L255.101 216.424ZM263.062 218.918C265.277 218.918 267.299 218.461 269.104 217.527L268.185 215.751C266.696 216.522 264.996 216.918 263.062 216.918V218.918ZM269.098 217.531C270.933 216.598 272.439 215.244 273.61 213.487L271.946 212.377C270.959 213.859 269.709 214.976 268.192 215.748L269.098 217.531ZM273.608 213.49C274.812 211.699 275.582 209.578 275.941 207.155L273.963 206.862C273.64 209.041 272.96 210.869 271.949 212.374L273.608 213.49ZM274.952 208.009H292.082V206.009H274.952V208.009ZM291.084 206.952C290.809 211.799 289.49 216.032 287.15 219.679L288.833 220.759C291.379 216.792 292.788 212.218 293.081 207.065L291.084 206.952ZM287.149 219.68C284.837 223.297 281.64 226.133 277.53 228.188L278.424 229.977C282.837 227.771 286.316 224.697 288.834 220.757L287.149 219.68ZM277.53 228.188C273.435 230.235 268.552 231.278 262.849 231.278V233.278C268.795 233.278 273.997 232.191 278.424 229.977L277.53 228.188ZM320.154 212.165L319.154 212.163L319.149 214.83L320.906 212.824L320.154 212.165ZM320.197 190.389V189.389H319.199L319.197 190.387L320.197 190.389ZM322.839 190.389V191.389H323.303L323.603 191.034L322.839 190.389ZM343.805 165.545V164.545H343.34L343.04 164.901L343.805 165.545ZM364.643 165.545L365.402 166.196L366.815 164.545H364.643V165.545ZM336.475 198.443V199.443H336.935L337.235 199.094L336.475 198.443ZM332.171 198.443V197.443H331.718L331.419 197.784L332.171 198.443ZM303.705 231H302.705V232H303.705V231ZM303.705 143.727V142.727H302.705V143.727H303.705ZM321.859 143.727H322.859V142.727H321.859V143.727ZM321.859 231V232H322.859V231H321.859ZM344.614 231L343.786 231.56L344.083 232H344.614V231ZM325.353 202.491L324.626 201.805L324.076 202.388L324.524 203.051L325.353 202.491ZM337.455 189.665L338.279 189.098L337.578 188.078L336.728 188.979L337.455 189.665ZM365.879 231V232H367.78L366.703 230.433L365.879 231ZM321.154 212.167L321.197 190.391L319.197 190.387L319.154 212.163L321.154 212.167ZM320.197 191.389H322.839V189.389H320.197V191.389ZM323.603 191.034L344.569 166.19L343.04 164.901L322.075 189.744L323.603 191.034ZM343.805 166.545H364.643V164.545H343.805V166.545ZM363.883 164.895L335.716 197.793L337.235 199.094L365.402 166.196L363.883 164.895ZM336.475 197.443H332.171V199.443H336.475V197.443ZM331.419 197.784L319.402 211.506L320.906 212.824L332.923 199.102L331.419 197.784ZM304.705 231V143.727H302.705V231H304.705ZM303.705 144.727H321.859V142.727H303.705V144.727ZM320.859 143.727V231H322.859V143.727H320.859ZM321.859 230H303.705V232H321.859V230ZM345.443 230.44L326.182 201.932L324.524 203.051L343.786 231.56L345.443 230.44ZM326.08 203.178L338.183 190.351L336.728 188.979L324.626 201.805L326.08 203.178ZM336.631 190.231L365.055 231.567L366.703 230.433L338.279 189.098L336.631 190.231ZM365.879 230H344.614V232H365.879V230Z" fill="#013234"/>
</g>
</svg>
