<svg width="752" height="243" viewBox="0 0 752 243" fill="none" xmlns="http://www.w3.org/2000/svg">
<rect width="752" height="243" fill="#65E4EA"/>
<circle cx="83" cy="67" r="41" stroke="#013234" stroke-width="8"/>
<path d="M101.587 52.3261L74.361 79.7174L62.4565 66.1028" stroke="#013234" stroke-width="8" stroke-linecap="round" stroke-linejoin="round"/>
<path d="M181.477 91.7457C177.566 91.7457 174.202 90.9171 171.385 89.2599C168.584 87.5862 166.43 85.2661 164.922 82.2997C163.43 79.3333 162.685 75.9195 162.685 72.0582C162.685 68.1473 163.439 64.7169 164.947 61.767C166.471 58.8007 168.634 56.4889 171.435 54.8317C174.235 53.1579 177.566 52.321 181.428 52.321C184.759 52.321 187.675 52.9259 190.178 54.1357C192.68 55.3454 194.66 57.044 196.119 59.2315C197.577 61.419 198.381 63.9877 198.53 66.9375H188.537C188.255 65.0317 187.509 63.4988 186.3 62.3388C185.107 61.1622 183.54 60.5739 181.602 60.5739C179.961 60.5739 178.527 61.0213 177.301 61.9162C176.091 62.7945 175.147 64.0788 174.467 65.7692C173.788 67.4595 173.448 69.5062 173.448 71.9091C173.448 74.3452 173.78 76.4167 174.442 78.1236C175.122 79.8305 176.075 81.1314 177.301 82.0263C178.527 82.9212 179.961 83.3686 181.602 83.3686C182.811 83.3686 183.897 83.12 184.858 82.6229C185.836 82.1257 186.639 81.4048 187.269 80.4602C187.915 79.4991 188.338 78.3473 188.537 77.005H198.53C198.364 79.9216 197.569 82.4903 196.143 84.7109C194.735 86.915 192.788 88.6385 190.302 89.8814C187.816 91.1243 184.875 91.7457 181.477 91.7457ZM215.899 68.9261V91H205.31V40.0909H215.601V59.5547H216.048C216.91 57.3009 218.302 55.536 220.225 54.2599C222.147 52.9673 224.558 52.321 227.458 52.321C230.11 52.321 232.422 52.901 234.394 54.0611C236.382 55.2045 237.923 56.8535 239.017 59.0078C240.128 61.1456 240.674 63.706 240.658 66.6889V91H230.068V68.5781C230.085 66.2249 229.488 64.3937 228.279 63.0845C227.085 61.7753 225.412 61.1207 223.257 61.1207C221.816 61.1207 220.539 61.4273 219.429 62.0405C218.335 62.6536 217.474 63.5485 216.844 64.7251C216.231 65.8852 215.916 67.2855 215.899 68.9261ZM266.392 91.7457C262.464 91.7457 259.084 90.9503 256.25 89.3594C253.433 87.7519 251.262 85.4815 249.737 82.5483C248.213 79.5985 247.45 76.1101 247.45 72.0831C247.45 68.1555 248.213 64.7086 249.737 61.7422C251.262 58.7758 253.408 56.464 256.175 54.8068C258.96 53.1496 262.224 52.321 265.969 52.321C268.488 52.321 270.833 52.727 273.004 53.5391C275.192 54.3345 277.098 55.536 278.722 57.1435C280.362 58.7509 281.638 60.7727 282.55 63.2088C283.461 65.6283 283.917 68.4621 283.917 71.7102V74.6186H251.676V68.0561H273.949C273.949 66.5315 273.617 65.1809 272.955 64.0043C272.292 62.8277 271.372 61.9079 270.195 61.245C269.035 60.5656 267.685 60.2259 266.143 60.2259C264.536 60.2259 263.111 60.5987 261.868 61.3445C260.642 62.0736 259.68 63.0597 258.984 64.3026C258.288 65.5289 257.932 66.8961 257.915 68.4041V74.6435C257.915 76.5327 258.263 78.165 258.96 79.5405C259.672 80.916 260.675 81.9766 261.967 82.7223C263.26 83.468 264.793 83.8409 266.566 83.8409C267.743 83.8409 268.82 83.6752 269.798 83.3438C270.775 83.0123 271.612 82.5152 272.308 81.8523C273.004 81.1894 273.535 80.3774 273.899 79.4162L283.693 80.0625C283.196 82.4157 282.177 84.4706 280.636 86.2273C279.111 87.9673 277.139 89.3262 274.719 90.304C272.317 91.2652 269.541 91.7457 266.392 91.7457ZM308.079 91.7457C304.168 91.7457 300.804 90.9171 297.987 89.2599C295.186 87.5862 293.031 85.2661 291.523 82.2997C290.032 79.3333 289.286 75.9195 289.286 72.0582C289.286 68.1473 290.04 64.7169 291.548 61.767C293.073 58.8007 295.236 56.4889 298.036 54.8317C300.837 53.1579 304.168 52.321 308.029 52.321C311.36 52.321 314.277 52.9259 316.779 54.1357C319.281 55.3454 321.262 57.044 322.72 59.2315C324.179 61.419 324.982 63.9877 325.131 66.9375H315.138C314.857 65.0317 314.111 63.4988 312.901 62.3388C311.708 61.1622 310.142 60.5739 308.203 60.5739C306.562 60.5739 305.129 61.0213 303.903 61.9162C302.693 62.7945 301.748 64.0788 301.069 65.7692C300.389 67.4595 300.05 69.5062 300.05 71.9091C300.05 74.3452 300.381 76.4167 301.044 78.1236C301.723 79.8305 302.676 81.1314 303.903 82.0263C305.129 82.9212 306.562 83.3686 308.203 83.3686C309.413 83.3686 310.498 83.12 311.46 82.6229C312.437 82.1257 313.241 81.4048 313.871 80.4602C314.517 79.4991 314.94 78.3473 315.138 77.005H325.131C324.966 79.9216 324.17 82.4903 322.745 84.7109C321.336 86.915 319.389 88.6385 316.903 89.8814C314.418 91.1243 311.476 91.7457 308.079 91.7457ZM341.507 80.0128L341.531 67.3104H343.073L355.303 52.8182H367.458L351.027 72.0085H348.517L341.507 80.0128ZM331.911 91V40.0909H342.501V91H331.911ZM355.775 91L344.539 74.37L351.599 66.8878L368.179 91H355.775Z" fill="#013234"/>
<path d="M171.385 89.2599L170.872 90.1184L170.878 90.1219L171.385 89.2599ZM164.922 82.2997L164.028 82.7489L164.03 82.7529L164.922 82.2997ZM164.947 61.767L164.057 61.3099L164.056 61.3118L164.947 61.767ZM171.435 54.8317L171.944 55.6923L171.948 55.6901L171.435 54.8317ZM190.178 54.1357L190.613 53.2353L190.613 53.2353L190.178 54.1357ZM196.119 59.2315L195.287 59.7862L196.119 59.2315ZM198.53 66.9375V67.9375H199.582L199.529 66.887L198.53 66.9375ZM188.537 66.9375L187.548 67.0837L187.674 67.9375H188.537V66.9375ZM186.3 62.3388L185.598 63.0509L185.608 63.0606L186.3 62.3388ZM177.301 61.9162L177.889 62.7254L177.891 62.724L177.301 61.9162ZM174.442 78.1236L173.51 78.4856L173.513 78.4934L174.442 78.1236ZM177.301 82.0263L177.891 81.2185L177.891 81.2185L177.301 82.0263ZM184.858 82.6229L184.405 81.7315L184.399 81.7347L184.858 82.6229ZM187.269 80.4602L186.439 79.9022L186.437 79.9055L187.269 80.4602ZM188.537 77.005V76.005H187.674L187.548 76.8584L188.537 77.005ZM198.53 77.005L199.528 77.0617L199.588 76.005H198.53V77.005ZM196.143 84.7109L195.302 84.1708L195.301 84.1724L196.143 84.7109ZM190.302 89.8814L189.855 88.987L189.855 88.987L190.302 89.8814ZM181.477 90.7457C177.709 90.7457 174.528 89.9485 171.892 88.398L170.878 90.1219C173.877 91.8858 177.423 92.7457 181.477 92.7457V90.7457ZM171.898 88.4016C169.262 86.8265 167.238 84.6484 165.813 81.8465L164.03 82.7529C165.622 85.8838 167.906 88.3458 170.872 90.1183L171.898 88.4016ZM165.815 81.8505C164.404 79.0446 163.685 75.7889 163.685 72.0582H161.685C161.685 76.0501 162.456 79.6221 164.028 82.7489L165.815 81.8505ZM163.685 72.0582C163.685 68.2771 164.413 65.0078 165.837 62.2222L164.056 61.3118C162.464 64.4259 161.685 68.0174 161.685 72.0582H163.685ZM165.836 62.2242C167.277 59.421 169.31 57.251 171.944 55.6923L170.925 53.9711C167.958 55.7267 165.666 58.1803 164.057 61.3099L165.836 62.2242ZM171.948 55.6901C174.567 54.1247 177.714 53.321 181.428 53.321V51.321C177.419 51.321 173.904 52.1911 170.922 53.9733L171.948 55.6901ZM181.428 53.321C184.637 53.321 187.4 53.9036 189.742 55.036L190.613 53.2353C187.95 51.9482 184.88 51.321 181.428 51.321V53.321ZM189.742 55.036C192.093 56.1726 193.933 57.7559 195.287 59.7862L196.951 58.6768C195.388 56.3322 193.266 54.5182 190.613 53.2353L189.742 55.036ZM195.287 59.7862C196.633 61.8059 197.39 64.1955 197.531 66.988L199.529 66.887C199.371 63.7799 198.521 61.0322 196.951 58.6768L195.287 59.7862ZM198.53 65.9375H188.537V67.9375H198.53V65.9375ZM189.526 66.7913C189.217 64.7003 188.385 62.953 186.992 61.617L185.608 63.0606C186.634 64.0446 187.293 65.3631 187.548 67.0837L189.526 66.7913ZM187.002 61.6267C185.592 60.2365 183.759 59.5739 181.602 59.5739V61.5739C183.322 61.5739 184.621 62.0878 185.598 63.0508L187.002 61.6267ZM181.602 59.5739C179.767 59.5739 178.123 60.0784 176.712 61.1084L177.891 62.724C178.932 61.9643 180.155 61.5739 181.602 61.5739V59.5739ZM176.714 61.107C175.321 62.1178 174.274 63.5696 173.539 65.3962L175.395 66.1421C176.02 64.588 176.861 63.4712 177.889 62.7254L176.714 61.107ZM173.539 65.3962C172.8 67.2363 172.448 69.417 172.448 71.9091H174.448C174.448 69.5953 174.776 67.6827 175.395 66.1421L173.539 65.3962ZM172.448 71.9091C172.448 74.4304 172.79 76.632 173.51 78.4856L175.375 77.7616C174.769 76.2013 174.448 74.2599 174.448 71.9091H172.448ZM173.513 78.4934C174.248 80.3384 175.304 81.8068 176.712 82.8341L177.891 81.2185C176.846 80.456 175.996 79.3226 175.372 77.7537L173.513 78.4934ZM176.712 82.8341C178.123 83.8641 179.767 84.3686 181.602 84.3686V82.3686C180.155 82.3686 178.932 81.9782 177.891 81.2185L176.712 82.8341ZM181.602 84.3686C182.952 84.3686 184.198 84.09 185.317 83.5111L184.399 81.7347C183.595 82.1501 182.671 82.3686 181.602 82.3686V84.3686ZM185.311 83.5143C186.448 82.9365 187.38 82.0972 188.101 81.0149L186.437 79.9055C185.899 80.7124 185.224 81.315 184.405 81.7315L185.311 83.5143ZM188.099 81.0182C188.842 79.914 189.309 78.616 189.526 77.1515L187.548 76.8584C187.367 78.0786 186.989 79.0841 186.439 79.9022L188.099 81.0182ZM188.537 78.005H198.53V76.005H188.537V78.005ZM197.531 76.9482C197.374 79.7118 196.624 82.1102 195.302 84.1708L196.985 85.2511C198.513 82.8704 199.354 80.1315 199.528 77.0617L197.531 76.9482ZM195.301 84.1724C193.996 86.2147 192.189 87.8196 189.855 88.987L190.749 90.7758C193.386 89.4574 195.474 87.6153 196.986 85.2495L195.301 84.1724ZM189.855 88.987C187.535 90.1467 184.753 90.7457 181.477 90.7457V92.7457C184.996 92.7457 188.097 92.1019 190.749 90.7758L189.855 88.987ZM215.899 68.9261L214.899 68.916V68.9261H215.899ZM215.899 91V92H216.899V91H215.899ZM205.31 91H204.31V92H205.31V91ZM205.31 40.0909V39.0909H204.31V40.0909H205.31ZM215.601 40.0909H216.601V39.0909H215.601V40.0909ZM215.601 59.5547H214.601V60.5547H215.601V59.5547ZM216.048 59.5547V60.5547H216.737L216.983 59.9118L216.048 59.5547ZM220.225 54.2599L220.778 55.0931L220.783 55.0898L220.225 54.2599ZM234.394 54.0611L233.887 54.9231L233.895 54.928L234.394 54.0611ZM239.017 59.0078L238.126 59.4605L238.13 59.4687L239.017 59.0078ZM240.658 66.6889L239.658 66.6834V66.6889H240.658ZM240.658 91V92H241.658V91H240.658ZM230.068 91H229.068V92H230.068V91ZM230.068 68.5781L229.068 68.5711V68.5781H230.068ZM228.279 63.0845L227.539 63.7581L227.544 63.7632L228.279 63.0845ZM219.429 62.0405L218.946 61.1651L218.94 61.1682L219.429 62.0405ZM216.844 64.7251L215.962 64.2533L215.96 64.2578L216.844 64.7251ZM214.899 68.9261V91H216.899V68.9261H214.899ZM215.899 90H205.31V92H215.899V90ZM206.31 91V40.0909H204.31V91H206.31ZM205.31 41.0909H215.601V39.0909H205.31V41.0909ZM214.601 40.0909V59.5547H216.601V40.0909H214.601ZM215.601 60.5547H216.048V58.5547H215.601V60.5547ZM216.983 59.9118C217.774 57.843 219.037 56.2485 220.778 55.0931L219.672 53.4268C217.568 54.8235 216.047 56.7588 215.114 59.1976L216.983 59.9118ZM220.783 55.0898C222.503 53.9331 224.707 53.321 227.458 53.321V51.321C224.41 51.321 221.791 52.0015 219.667 53.4301L220.783 55.0898ZM227.458 53.321C229.96 53.321 232.091 53.8669 233.887 54.923L234.901 53.1991C232.752 51.9352 230.259 51.321 227.458 51.321V53.321ZM233.895 54.928C235.706 55.9692 237.115 57.4698 238.126 59.4605L239.909 58.5551C238.732 56.2371 237.058 54.4398 234.892 53.1942L233.895 54.928ZM238.13 59.4687C239.15 61.4321 239.674 63.8247 239.658 66.6834L241.658 66.6945C241.675 63.5872 241.106 60.8591 239.905 58.5469L238.13 59.4687ZM239.658 66.6889V91H241.658V66.6889H239.658ZM240.658 90H230.068V92H240.658V90ZM231.068 91V68.5781H229.068V91H231.068ZM231.068 68.5852C231.086 66.0614 230.445 63.955 229.013 62.4059L227.544 63.7632C228.532 64.8324 229.084 66.3884 229.068 68.5711L231.068 68.5852ZM229.018 62.4109C227.595 60.8497 225.627 60.1207 223.257 60.1207V62.1207C225.196 62.1207 226.576 62.701 227.539 63.7581L229.018 62.4109ZM223.257 60.1207C221.67 60.1207 220.223 60.4596 218.946 61.1651L219.913 62.9159C220.856 62.3951 221.961 62.1207 223.257 62.1207V60.1207ZM218.94 61.1682C217.669 61.8807 216.676 62.9198 215.962 64.2533L217.726 65.197C218.271 64.1773 219.002 63.4266 219.918 62.9128L218.94 61.1682ZM215.96 64.2578C215.256 65.5898 214.917 67.155 214.899 68.916L216.899 68.9362C216.915 67.416 217.206 66.1806 217.728 65.1924L215.96 64.2578ZM256.25 89.3594L255.754 90.228L255.76 90.2314L256.25 89.3594ZM249.737 82.5483L248.849 83.0074L248.85 83.0095L249.737 82.5483ZM249.737 61.7422L248.848 61.2851L248.848 61.2851L249.737 61.7422ZM256.175 54.8068L255.664 53.9475L255.662 53.9489L256.175 54.8068ZM273.004 53.5391L272.654 54.4757L272.663 54.4789L273.004 53.5391ZM278.722 57.1435L278.018 57.8542L278.022 57.8578L278.722 57.1435ZM282.55 63.2088L281.613 63.5592L281.614 63.5613L282.55 63.2088ZM283.917 74.6186V75.6186H284.917V74.6186H283.917ZM251.676 74.6186H250.676V75.6186H251.676V74.6186ZM251.676 68.0561V67.0561H250.676V68.0561H251.676ZM273.949 68.0561V69.0561H274.949V68.0561H273.949ZM272.955 64.0043L272.083 64.4951L272.083 64.4951L272.955 64.0043ZM270.195 61.245L269.69 62.1079L269.697 62.1122L269.704 62.1163L270.195 61.245ZM261.868 61.3445L262.379 62.204L262.382 62.202L261.868 61.3445ZM258.984 64.3026L259.854 64.7962L259.857 64.7912L258.984 64.3026ZM257.915 68.4041L256.915 68.3931V68.4041H257.915ZM258.96 79.5405L258.067 79.992L258.072 80.0005L258.96 79.5405ZM269.798 83.3438L269.477 82.3967L269.477 82.3967L269.798 83.3438ZM272.308 81.8523L271.619 81.1281L271.619 81.1281L272.308 81.8523ZM273.899 79.4162L273.965 78.4184L273.227 78.3696L272.964 79.0615L273.899 79.4162ZM283.693 80.0625L284.672 80.2692L284.91 79.1406L283.759 79.0647L283.693 80.0625ZM280.636 86.2273L279.884 85.5678L279.884 85.5683L280.636 86.2273ZM274.719 90.304L275.091 91.2325L275.094 91.2311L274.719 90.304ZM266.392 90.7457C262.6 90.7457 259.396 89.9785 256.74 88.4874L255.76 90.2314C258.772 91.9221 262.329 92.7457 266.392 92.7457V90.7457ZM256.746 88.4908C254.099 86.9806 252.062 84.8532 250.625 82.0871L248.85 83.0095C250.461 86.1099 252.767 88.5232 255.754 90.2279L256.746 88.4908ZM250.626 82.0891C249.188 79.3084 248.45 75.9839 248.45 72.0831H246.45C246.45 76.2362 247.237 79.8886 248.849 83.0074L250.626 82.0891ZM248.45 72.0831C248.45 68.2864 249.187 65.0012 250.627 62.1993L248.848 61.2851C247.239 64.4159 246.45 68.0247 246.45 72.0831H248.45ZM250.627 62.1993C252.069 59.3931 254.087 57.2227 256.689 55.6648L255.662 53.9489C252.728 55.7054 250.455 58.1586 248.848 61.2851L250.627 62.1993ZM256.687 55.6661C259.293 54.1146 262.376 53.321 265.969 53.321V51.321C262.073 51.321 258.626 52.1847 255.664 53.9475L256.687 55.6661ZM265.969 53.321C268.379 53.321 270.604 53.7091 272.654 54.4757L273.355 52.6024C271.062 51.745 268.598 51.321 265.969 51.321V53.321ZM272.663 54.4789C274.717 55.2259 276.499 56.3502 278.018 57.8542L279.425 56.4327C277.696 54.7218 275.667 53.4431 273.346 52.5993L272.663 54.4789ZM278.022 57.8578C279.545 59.35 280.746 61.2421 281.613 63.5592L283.486 62.8584C282.53 60.3034 281.18 58.1519 279.421 56.4292L278.022 57.8578ZM281.614 63.5613C282.474 65.8434 282.917 68.5529 282.917 71.7102H284.917C284.917 68.3713 284.449 65.4132 283.486 62.8563L281.614 63.5613ZM282.917 71.7102V74.6186H284.917V71.7102H282.917ZM283.917 73.6186H251.676V75.6186H283.917V73.6186ZM252.676 74.6186V68.0561H250.676V74.6186H252.676ZM251.676 69.0561H273.949V67.0561H251.676V69.0561ZM274.949 68.0561C274.949 66.3821 274.584 64.8583 273.826 63.5134L272.083 64.4951C272.651 65.5034 272.949 66.6809 272.949 68.0561H274.949ZM273.826 63.5134C273.073 62.1776 272.022 61.1263 270.686 60.3738L269.704 62.1163C270.722 62.6895 271.51 63.4777 272.083 64.4951L273.826 63.5134ZM270.701 60.3821C269.366 59.6004 267.836 59.2259 266.143 59.2259V61.2259C267.533 61.2259 268.704 61.5307 269.69 62.1079L270.701 60.3821ZM266.143 59.2259C264.375 59.2259 262.768 59.6381 261.353 60.487L262.382 62.202C263.453 61.5594 264.697 61.2259 266.143 61.2259V59.2259ZM261.357 60.4849C259.98 61.3037 258.894 62.4176 258.112 63.814L259.857 64.7912C260.467 63.7017 261.303 62.8435 262.379 62.204L261.357 60.4849ZM258.115 63.809C257.329 65.1927 256.934 66.7279 256.916 68.3931L258.915 68.4151C258.93 67.0642 259.247 65.865 259.854 64.7962L258.115 63.809ZM256.915 68.4041V74.6435H258.915V68.4041H256.915ZM256.915 74.6435C256.915 76.6547 257.286 78.4485 258.067 79.992L259.852 79.089C259.241 77.8815 258.915 76.4106 258.915 74.6435H256.915ZM258.072 80.0005C258.869 81.5389 260.003 82.7435 261.468 83.5885L262.467 81.8561C261.347 81.2096 260.476 80.293 259.847 79.0805L258.072 80.0005ZM261.468 83.5885C262.939 84.4371 264.651 84.8409 266.566 84.8409V82.8409C264.935 82.8409 263.581 82.499 262.467 81.8561L261.468 83.5885ZM266.566 84.8409C267.837 84.8409 269.024 84.6618 270.119 84.2908L269.477 82.3967C268.616 82.6886 267.648 82.8409 266.566 82.8409V84.8409ZM270.119 84.2908C271.224 83.9162 272.189 83.3468 272.998 82.5764L271.619 81.1281C271.035 81.6835 270.327 82.1084 269.477 82.3967L270.119 84.2908ZM272.998 82.5764C273.81 81.8032 274.42 80.8621 274.834 79.7708L272.964 79.0615C272.649 79.8927 272.199 80.5756 271.619 81.1281L272.998 82.5764ZM273.833 80.414L283.627 81.0603L283.759 79.0647L273.965 78.4184L273.833 80.414ZM282.715 79.8558C282.252 82.0462 281.309 83.944 279.884 85.5678L281.387 86.8868C283.045 84.9973 284.14 82.7852 284.672 80.2692L282.715 79.8558ZM279.884 85.5683C278.475 87.1763 276.638 88.4501 274.345 89.3768L275.094 91.2311C277.64 90.2023 279.748 88.7583 281.388 86.8863L279.884 85.5683ZM274.348 89.3755C272.086 90.2804 269.44 90.7457 266.392 90.7457V92.7457C269.641 92.7457 272.547 92.2499 275.091 91.2325L274.348 89.3755ZM297.987 89.2599L297.473 90.1184L297.479 90.1219L297.987 89.2599ZM291.523 82.2997L290.63 82.7489L290.632 82.7529L291.523 82.2997ZM291.548 61.767L290.659 61.3099L290.658 61.3118L291.548 61.767ZM298.036 54.8317L298.545 55.6923L298.549 55.6901L298.036 54.8317ZM316.779 54.1357L317.214 53.2353L317.214 53.2353L316.779 54.1357ZM322.72 59.2315L321.888 59.7862L322.72 59.2315ZM325.131 66.9375V67.9375H326.183L326.13 66.887L325.131 66.9375ZM315.138 66.9375L314.149 67.0837L314.275 67.9375H315.138V66.9375ZM312.901 62.3388L312.199 63.0509L312.209 63.0606L312.901 62.3388ZM303.903 61.9162L304.49 62.7254L304.492 62.724L303.903 61.9162ZM301.044 78.1236L300.112 78.4856L300.115 78.4934L301.044 78.1236ZM303.903 82.0263L304.492 81.2185L304.492 81.2185L303.903 82.0263ZM311.46 82.6229L311.006 81.7315L311 81.7347L311.46 82.6229ZM313.871 80.4602L313.041 79.9022L313.039 79.9055L313.871 80.4602ZM315.138 77.005V76.005H314.276L314.149 76.8584L315.138 77.005ZM325.131 77.005L326.13 77.0617L326.19 76.005H325.131V77.005ZM322.745 84.7109L321.903 84.1708L321.902 84.1724L322.745 84.7109ZM316.903 89.8814L316.456 88.987L316.456 88.987L316.903 89.8814ZM308.079 90.7457C304.311 90.7457 301.129 89.9485 298.494 88.398L297.479 90.1219C300.478 91.8858 304.025 92.7457 308.079 92.7457V90.7457ZM298.5 88.4016C295.864 86.8265 293.839 84.6484 292.415 81.8465L290.632 82.7529C292.224 85.8838 294.508 88.3458 297.474 90.1183L298.5 88.4016ZM292.417 81.8505C291.006 79.0446 290.286 75.7889 290.286 72.0582H288.286C288.286 76.0501 289.058 79.6221 290.63 82.7489L292.417 81.8505ZM290.286 72.0582C290.286 68.2771 291.015 65.0078 292.439 62.2222L290.658 61.3118C289.066 64.4259 288.286 68.0174 288.286 72.0582H290.286ZM292.438 62.2242C293.878 59.421 295.911 57.251 298.545 55.6923L297.527 53.9711C294.56 55.7267 292.267 58.1803 290.659 61.3099L292.438 62.2242ZM298.549 55.6901C301.168 54.1247 304.315 53.321 308.029 53.321V51.321C304.021 51.321 300.505 52.1911 297.523 53.9733L298.549 55.6901ZM308.029 53.321C311.239 53.321 314.002 53.9036 316.344 55.036L317.214 53.2353C314.552 51.9482 311.481 51.321 308.029 51.321V53.321ZM316.344 55.036C318.695 56.1726 320.535 57.7559 321.888 59.7862L323.552 58.6768C321.989 56.3322 319.868 54.5182 317.214 53.2353L316.344 55.036ZM321.888 59.7862C323.235 61.8059 323.991 64.1955 324.133 66.988L326.13 66.887C325.973 63.7799 325.122 61.0322 323.552 58.6768L321.888 59.7862ZM325.131 65.9375H315.138V67.9375H325.131V65.9375ZM316.128 66.7913C315.819 64.7003 314.987 62.953 313.593 61.617L312.209 63.0606C313.235 64.0446 313.895 65.3631 314.149 67.0837L316.128 66.7913ZM313.603 61.6267C312.194 60.2365 310.36 59.5739 308.203 59.5739V61.5739C309.924 61.5739 311.223 62.0878 312.199 63.0508L313.603 61.6267ZM308.203 59.5739C306.369 59.5739 304.725 60.0784 303.313 61.1084L304.492 62.724C305.533 61.9643 306.756 61.5739 308.203 61.5739V59.5739ZM303.315 61.107C301.923 62.1178 300.875 63.5696 300.141 65.3962L301.997 66.1421C302.621 64.588 303.463 63.4712 304.49 62.7254L303.315 61.107ZM300.141 65.3962C299.401 67.2363 299.05 69.417 299.05 71.9091H301.05C301.05 69.5953 301.377 67.6827 301.997 66.1421L300.141 65.3962ZM299.05 71.9091C299.05 74.4304 299.392 76.632 300.112 78.4856L301.976 77.7616C301.37 76.2013 301.05 74.2599 301.05 71.9091H299.05ZM300.115 78.4934C300.849 80.3384 301.905 81.8068 303.313 82.8341L304.492 81.2185C303.447 80.456 302.598 79.3226 301.973 77.7537L300.115 78.4934ZM303.313 82.8341C304.725 83.8641 306.369 84.3686 308.203 84.3686V82.3686C306.756 82.3686 305.533 81.9782 304.492 81.2185L303.313 82.8341ZM308.203 84.3686C309.554 84.3686 310.8 84.09 311.919 83.5111L311 81.7347C310.197 82.1501 309.272 82.3686 308.203 82.3686V84.3686ZM311.913 83.5143C313.049 82.9365 313.981 82.0972 314.703 81.0149L313.039 79.9055C312.501 80.7124 311.825 81.315 311.006 81.7315L311.913 83.5143ZM314.701 81.0182C315.443 79.914 315.911 78.616 316.128 77.1515L314.149 76.8584C313.969 78.0786 313.591 79.0841 313.041 79.9022L314.701 81.0182ZM315.138 78.005H325.131V76.005H315.138V78.005ZM324.133 76.9482C323.976 79.7118 323.226 82.1102 321.903 84.1708L323.587 85.2511C325.115 82.8704 325.955 80.1315 326.13 77.0617L324.133 76.9482ZM321.902 84.1724C320.597 86.2147 318.791 87.8196 316.456 88.987L317.351 90.7758C319.987 89.4574 322.076 87.6153 323.588 85.2495L321.902 84.1724ZM316.456 88.987C314.137 90.1467 311.355 90.7457 308.079 90.7457V92.7457C311.597 92.7457 314.698 92.1019 317.351 90.7758L316.456 88.987ZM341.507 80.0128L340.507 80.0108L340.501 82.6784L342.259 80.6716L341.507 80.0128ZM341.531 67.3104V66.3104H340.533L340.531 67.3084L341.531 67.3104ZM343.073 67.3104V68.3104H343.537L343.837 67.9553L343.073 67.3104ZM355.303 52.8182V51.8182H354.838L354.539 52.1732L355.303 52.8182ZM367.458 52.8182L368.218 53.4686L369.631 51.8182H367.458V52.8182ZM351.027 72.0085V73.0085H351.487L351.787 72.6589L351.027 72.0085ZM348.517 72.0085V71.0085H348.063L347.764 71.3497L348.517 72.0085ZM331.911 91H330.911V92H331.911V91ZM331.911 40.0909V39.0909H330.911V40.0909H331.911ZM342.501 40.0909H343.501V39.0909H342.501V40.0909ZM342.501 91V92H343.501V91H342.501ZM355.775 91L354.946 91.5598L355.244 92H355.775V91ZM344.539 74.37L343.812 73.6838L343.262 74.2663L343.711 74.9299L344.539 74.37ZM351.599 66.8878L352.423 66.3212L351.721 65.3009L350.872 66.2015L351.599 66.8878ZM368.179 91V92H370.08L369.003 90.4334L368.179 91ZM342.507 80.0147L342.531 67.3123L340.531 67.3084L340.507 80.0108L342.507 80.0147ZM341.531 68.3104H343.073V66.3104H341.531V68.3104ZM343.837 67.9553L356.067 53.4631L354.539 52.1732L342.308 66.6654L343.837 67.9553ZM355.303 53.8182H367.458V51.8182H355.303V53.8182ZM366.699 52.1678L350.268 71.3581L351.787 72.6589L368.218 53.4686L366.699 52.1678ZM351.027 71.0085H348.517V73.0085H351.027V71.0085ZM347.764 71.3497L340.754 79.3539L342.259 80.6716L349.269 72.6674L347.764 71.3497ZM332.911 91V40.0909H330.911V91H332.911ZM331.911 41.0909H342.501V39.0909H331.911V41.0909ZM341.501 40.0909V91H343.501V40.0909H341.501ZM342.501 90H331.911V92H342.501V90ZM356.604 90.4402L345.368 73.8102L343.711 74.9299L354.946 91.5598L356.604 90.4402ZM345.267 75.0563L352.326 67.5741L350.872 66.2015L343.812 73.6838L345.267 75.0563ZM350.775 67.4544L367.355 91.5666L369.003 90.4334L352.423 66.3212L350.775 67.4544ZM368.179 90H355.775V92H368.179V90Z" fill="#013234"/>
</svg>
