<svg width="752" height="213" viewBox="0 0 752 213" fill="none" xmlns="http://www.w3.org/2000/svg">
<mask id="mask0_1045_863" style="mask-type:alpha" maskUnits="userSpaceOnUse" x="0" y="0" width="752" height="213">
<rect width="752" height="213" fill="#65E4EA"/>
</mask>
<g mask="url(#mask0_1045_863)">
<rect width="752" height="213" fill="#65E4EA"/>
<circle cx="692" cy="171" r="101" stroke="#013234" stroke-width="8"/>
<path d="M735.37 136.761L671.842 200.674L644.065 168.906" stroke="#013234" stroke-width="8" stroke-linecap="round" stroke-linejoin="round"/>
<path d="M45.8182 202.278C39.1136 202.278 33.3466 200.858 28.517 198.017C23.7159 195.148 20.0227 191.17 17.4375 186.085C14.8807 181 13.6023 175.148 13.6023 168.528C13.6023 161.824 14.8949 155.943 17.4801 150.886C20.0938 145.801 23.8011 141.838 28.6023 138.997C33.4034 136.128 39.1136 134.693 45.733 134.693C51.4432 134.693 56.4432 135.73 60.733 137.804C65.0227 139.878 68.4176 142.79 70.9176 146.54C73.4176 150.29 74.7955 154.693 75.0511 159.75H57.9205C57.4375 156.483 56.1591 153.855 54.0852 151.866C52.0398 149.849 49.3551 148.841 46.0312 148.841C43.2188 148.841 40.7614 149.608 38.6591 151.142C36.5852 152.648 34.9659 154.849 33.8011 157.747C32.6364 160.645 32.054 164.153 32.054 168.273C32.054 172.449 32.6222 176 33.7585 178.926C34.9233 181.852 36.5568 184.082 38.6591 185.616C40.7614 187.151 43.2188 187.918 46.0312 187.918C48.1051 187.918 49.9659 187.491 51.6136 186.639C53.2898 185.787 54.6676 184.551 55.7472 182.932C56.8551 181.284 57.5795 179.31 57.9205 177.009H75.0511C74.767 182.009 73.4034 186.412 70.9602 190.219C68.5455 193.997 65.2074 196.952 60.946 199.082C56.6847 201.213 51.642 202.278 45.8182 202.278ZM104.827 163.159V201H86.674V113.727H104.316V147.094H105.083C106.56 143.23 108.947 140.205 112.242 138.017C115.538 135.801 119.671 134.693 124.643 134.693C129.188 134.693 133.151 135.688 136.532 137.676C139.941 139.636 142.583 142.463 144.458 146.156C146.362 149.821 147.299 154.21 147.271 159.324V201H129.117V162.562C129.146 158.528 128.123 155.389 126.049 153.145C124.004 150.901 121.134 149.778 117.441 149.778C114.969 149.778 112.782 150.304 110.879 151.355C109.004 152.406 107.526 153.94 106.447 155.957C105.396 157.946 104.856 160.347 104.827 163.159ZM191.386 202.278C184.653 202.278 178.858 200.915 174 198.188C169.17 195.432 165.449 191.54 162.835 186.511C160.222 181.455 158.915 175.474 158.915 168.571C158.915 161.838 160.222 155.929 162.835 150.844C165.449 145.759 169.128 141.795 173.872 138.955C178.645 136.114 184.241 134.693 190.662 134.693C194.98 134.693 199 135.389 202.722 136.781C206.472 138.145 209.739 140.205 212.523 142.96C215.335 145.716 217.523 149.182 219.085 153.358C220.648 157.506 221.429 162.364 221.429 167.932V172.918H166.159V161.668H204.341C204.341 159.054 203.773 156.739 202.636 154.722C201.5 152.705 199.923 151.128 197.906 149.991C195.918 148.827 193.602 148.244 190.96 148.244C188.205 148.244 185.761 148.884 183.631 150.162C181.528 151.412 179.881 153.102 178.688 155.233C177.494 157.335 176.884 159.679 176.855 162.264V172.96C176.855 176.199 177.452 178.997 178.645 181.355C179.866 183.713 181.585 185.531 183.801 186.81C186.017 188.088 188.645 188.727 191.685 188.727C193.702 188.727 195.548 188.443 197.224 187.875C198.901 187.307 200.335 186.455 201.528 185.318C202.722 184.182 203.631 182.79 204.256 181.142L221.045 182.25C220.193 186.284 218.446 189.807 215.804 192.818C213.19 195.801 209.81 198.131 205.662 199.807C201.543 201.455 196.784 202.278 191.386 202.278ZM262.849 202.278C256.145 202.278 250.378 200.858 245.548 198.017C240.747 195.148 237.054 191.17 234.469 186.085C231.912 181 230.634 175.148 230.634 168.528C230.634 161.824 231.926 155.943 234.511 150.886C237.125 145.801 240.832 141.838 245.634 138.997C250.435 136.128 256.145 134.693 262.764 134.693C268.474 134.693 273.474 135.73 277.764 137.804C282.054 139.878 285.449 142.79 287.949 146.54C290.449 150.29 291.827 154.693 292.082 159.75H274.952C274.469 156.483 273.19 153.855 271.116 151.866C269.071 149.849 266.386 148.841 263.062 148.841C260.25 148.841 257.793 149.608 255.69 151.142C253.616 152.648 251.997 154.849 250.832 157.747C249.668 160.645 249.085 164.153 249.085 168.273C249.085 172.449 249.653 176 250.79 178.926C251.955 181.852 253.588 184.082 255.69 185.616C257.793 187.151 260.25 187.918 263.062 187.918C265.136 187.918 266.997 187.491 268.645 186.639C270.321 185.787 271.699 184.551 272.778 182.932C273.886 181.284 274.611 179.31 274.952 177.009H292.082C291.798 182.009 290.435 186.412 287.991 190.219C285.577 193.997 282.239 196.952 277.977 199.082C273.716 201.213 268.673 202.278 262.849 202.278ZM320.154 182.165L320.197 160.389H322.839L343.805 135.545H364.643L336.475 168.443H332.171L320.154 182.165ZM303.705 201V113.727H321.859V201H303.705ZM344.614 201L325.353 172.491L337.455 159.665L365.879 201H344.614Z" fill="#013234"/>
<path d="M28.517 198.017L28.004 198.875L28.01 198.879L28.517 198.017ZM17.4375 186.085L16.5441 186.534L16.5461 186.538L17.4375 186.085ZM17.4801 150.886L16.5907 150.429L16.5897 150.431L17.4801 150.886ZM28.6023 138.997L29.1115 139.858L29.1153 139.856L28.6023 138.997ZM60.733 137.804L61.1682 136.904L61.1682 136.904L60.733 137.804ZM75.0511 159.75V160.75H76.103L76.0499 159.7L75.0511 159.75ZM57.9205 159.75L56.9312 159.896L57.0574 160.75H57.9205V159.75ZM54.0852 151.866L53.383 152.579L53.3931 152.588L54.0852 151.866ZM38.6591 151.142L39.2466 151.951L39.2486 151.95L38.6591 151.142ZM33.7585 178.926L32.8263 179.288L32.8294 179.296L33.7585 178.926ZM38.6591 185.616L39.2486 184.809L39.2486 184.809L38.6591 185.616ZM51.6136 186.639L51.1604 185.748L51.1542 185.751L51.6136 186.639ZM55.7472 182.932L54.9173 182.374L54.9151 182.377L55.7472 182.932ZM57.9205 177.009V176.009H57.0577L56.9313 176.862L57.9205 177.009ZM75.0511 177.009L76.0495 177.065L76.1096 176.009H75.0511V177.009ZM70.9602 190.219L70.1186 189.679L70.1176 189.68L70.9602 190.219ZM60.946 199.082L60.4988 198.188L60.4988 198.188L60.946 199.082ZM45.8182 201.278C39.2568 201.278 33.6722 199.889 29.0241 197.155L28.01 198.879C33.021 201.827 38.9705 203.278 45.8182 203.278V201.278ZM29.03 197.159C24.3941 194.388 20.8305 190.553 18.3289 185.632L16.5461 186.538C19.2149 191.788 23.0377 195.907 28.004 198.875L29.03 197.159ZM18.3309 185.636C15.8548 180.711 14.6023 175.017 14.6023 168.528H12.6023C12.6023 175.278 13.9066 181.289 16.5441 186.534L18.3309 185.636ZM14.6023 168.528C14.6023 161.954 15.8692 156.234 18.3705 151.342L16.5897 150.431C13.9205 155.652 12.6023 161.694 12.6023 168.528H14.6023ZM18.3695 151.343C20.8993 146.421 24.4768 142.6 29.1115 139.858L28.093 138.137C23.1255 141.076 19.2882 145.181 16.5907 150.429L18.3695 151.343ZM29.1153 139.856C33.735 137.095 39.2609 135.693 45.733 135.693V133.693C38.9664 133.693 33.0719 135.161 28.0893 138.139L29.1153 139.856ZM45.733 135.693C51.322 135.693 56.168 136.708 60.2977 138.704L61.1682 136.904C56.7184 134.752 51.5644 133.693 45.733 133.693V135.693ZM60.2977 138.704C64.4363 140.705 67.6903 143.502 70.0856 147.094L71.7497 145.985C69.1449 142.078 65.6092 139.051 61.1682 136.904L60.2977 138.704ZM70.0856 147.094C72.4737 150.677 73.8047 154.901 74.0524 159.8L76.0499 159.7C75.7862 154.485 74.3616 149.903 71.7497 145.985L70.0856 147.094ZM75.0511 158.75H57.9205V160.75H75.0511V158.75ZM58.9097 159.604C58.3994 156.152 57.0347 153.309 54.7773 151.145L53.3931 152.588C55.2835 154.401 56.4756 156.814 56.9312 159.896L58.9097 159.604ZM54.7874 151.154C52.5253 148.924 49.5733 147.841 46.0312 147.841V149.841C49.1369 149.841 51.5543 150.775 53.3831 152.579L54.7874 151.154ZM46.0312 147.841C43.0249 147.841 40.3571 148.665 38.0696 150.334L39.2486 151.95C41.1656 150.551 43.4126 149.841 46.0312 149.841V147.841ZM38.0716 150.333C35.8152 151.971 34.0928 154.34 32.8733 157.374L34.729 158.12C35.839 155.359 37.3552 153.324 39.2466 151.951L38.0716 150.333ZM32.8733 157.374C31.6483 160.422 31.054 164.064 31.054 168.273H33.054C33.054 164.243 33.6244 160.868 34.729 158.12L32.8733 157.374ZM31.054 168.273C31.054 172.534 31.633 176.215 32.8263 179.288L34.6907 178.564C33.6113 175.785 33.054 172.364 33.054 168.273H31.054ZM32.8294 179.296C34.0491 182.36 35.7859 184.758 38.0696 186.424L39.2486 184.809C37.3278 183.407 35.7974 181.344 34.6876 178.556L32.8294 179.296ZM38.0696 186.424C40.3571 188.094 43.0249 188.918 46.0312 188.918V186.918C43.4126 186.918 41.1656 186.208 39.2486 184.809L38.0696 186.424ZM46.0312 188.918C48.2459 188.918 50.2673 188.461 52.0731 187.527L51.1542 185.751C49.6645 186.522 47.9643 186.918 46.0312 186.918V188.918ZM52.0669 187.531C53.9016 186.598 55.4079 185.244 56.5792 183.487L54.9151 182.377C53.9274 183.859 52.678 184.976 51.1604 185.748L52.0669 187.531ZM56.577 183.49C57.7811 181.699 58.5506 179.578 58.9097 177.155L56.9313 176.862C56.6084 179.041 55.9291 180.869 54.9173 182.374L56.577 183.49ZM57.9205 178.009H75.0511V176.009H57.9205V178.009ZM74.0527 176.952C73.7774 181.799 72.4591 186.032 70.1186 189.679L71.8018 190.759C74.3477 186.792 75.7567 182.218 76.0495 177.065L74.0527 176.952ZM70.1176 189.68C67.8062 193.297 64.6092 196.133 60.4988 198.188L61.3932 199.977C65.8056 197.771 69.2847 194.697 71.8028 190.757L70.1176 189.68ZM60.4988 198.188C56.4038 200.235 51.5208 201.278 45.8182 201.278V203.278C51.7633 203.278 56.9655 202.191 61.3932 199.977L60.4988 198.188ZM104.827 163.159L103.827 163.149V163.159H104.827ZM104.827 201V202H105.827V201H104.827ZM86.674 201H85.674V202H86.674V201ZM86.674 113.727V112.727H85.674V113.727H86.674ZM104.316 113.727H105.316V112.727H104.316V113.727ZM104.316 147.094H103.316V148.094H104.316V147.094ZM105.083 147.094V148.094H105.771L106.017 147.451L105.083 147.094ZM112.242 138.017L112.795 138.85L112.8 138.847L112.242 138.017ZM136.532 137.676L136.025 138.538L136.033 138.543L136.532 137.676ZM144.458 146.156L143.566 146.609L143.571 146.617L144.458 146.156ZM147.271 159.324L146.271 159.318V159.324H147.271ZM147.271 201V202H148.271V201H147.271ZM129.117 201H128.117V202H129.117V201ZM129.117 162.562L128.117 162.555V162.562H129.117ZM126.049 153.145L125.31 153.819L125.315 153.824L126.049 153.145ZM110.879 151.355L110.395 150.48L110.39 150.483L110.879 151.355ZM106.447 155.957L105.565 155.486L105.563 155.49L106.447 155.957ZM103.827 163.159V201H105.827V163.159H103.827ZM104.827 200H86.674V202H104.827V200ZM87.674 201V113.727H85.674V201H87.674ZM86.674 114.727H104.316V112.727H86.674V114.727ZM103.316 113.727V147.094H105.316V113.727H103.316ZM104.316 148.094H105.083V146.094H104.316V148.094ZM106.017 147.451C107.424 143.772 109.681 140.917 112.795 138.85L111.689 137.184C108.212 139.492 105.697 142.688 104.149 146.737L106.017 147.451ZM112.8 138.847C115.893 136.767 119.82 135.693 124.643 135.693V133.693C119.523 133.693 115.182 134.835 111.684 137.187L112.8 138.847ZM124.643 135.693C129.039 135.693 132.821 136.653 136.025 138.538L137.039 136.814C133.482 134.722 129.338 133.693 124.643 133.693V135.693ZM136.033 138.543C139.265 140.401 141.775 143.079 143.566 146.609L145.35 145.704C143.392 141.847 140.617 138.872 137.03 136.809L136.033 138.543ZM143.571 146.617C145.383 150.108 146.298 154.329 146.271 159.318L148.271 159.329C148.3 154.092 147.34 149.535 145.346 145.695L143.571 146.617ZM146.271 159.324V201H148.271V159.324H146.271ZM147.271 200H129.117V202H147.271V200ZM130.117 201V162.562H128.117V201H130.117ZM130.117 162.57C130.147 158.365 129.079 154.95 126.783 152.466L125.315 153.824C127.167 155.828 128.144 158.692 128.117 162.555L130.117 162.57ZM126.788 152.471C124.513 149.975 121.35 148.778 117.441 148.778V150.778C120.919 150.778 123.494 151.826 125.31 153.818L126.788 152.471ZM117.441 148.778C114.824 148.778 112.466 149.336 110.395 150.48L111.362 152.23C113.098 151.272 115.115 150.778 117.441 150.778V148.778ZM110.39 150.483C108.337 151.633 106.729 153.312 105.565 155.486L107.328 156.429C108.324 154.569 109.67 153.179 111.368 152.227L110.39 150.483ZM105.563 155.49C104.421 157.651 103.857 160.216 103.827 163.149L105.827 163.169C105.855 160.477 106.371 158.241 107.331 156.425L105.563 155.49ZM174 198.188L173.504 199.056L173.51 199.059L174 198.188ZM162.835 186.511L161.947 186.971L161.948 186.973L162.835 186.511ZM162.835 150.844L161.946 150.387L161.946 150.387L162.835 150.844ZM173.872 138.955L173.361 138.095L173.358 138.097L173.872 138.955ZM202.722 136.781L202.371 137.718L202.38 137.721L202.722 136.781ZM212.523 142.96L211.819 143.671L211.823 143.675L212.523 142.96ZM219.085 153.358L218.149 153.708L218.149 153.71L219.085 153.358ZM221.429 172.918V173.918H222.429V172.918H221.429ZM166.159 172.918H165.159V173.918H166.159V172.918ZM166.159 161.668V160.668H165.159V161.668H166.159ZM204.341 161.668V162.668H205.341V161.668H204.341ZM202.636 154.722L201.765 155.212L201.765 155.212L202.636 154.722ZM197.906 149.991L197.401 150.854L197.408 150.859L197.415 150.863L197.906 149.991ZM183.631 150.162L184.142 151.021L184.145 151.019L183.631 150.162ZM178.688 155.233L179.557 155.727L179.56 155.722L178.688 155.233ZM176.855 162.264L175.855 162.253V162.264H176.855ZM178.645 181.355L177.753 181.807L177.757 181.815L178.645 181.355ZM197.224 187.875L196.903 186.928L196.903 186.928L197.224 187.875ZM201.528 185.318L200.839 184.594L200.839 184.594L201.528 185.318ZM204.256 181.142L204.322 180.144L203.583 180.095L203.321 180.787L204.256 181.142ZM221.045 182.25L222.024 182.457L222.262 181.328L221.111 181.252L221.045 182.25ZM215.804 192.818L215.052 192.159L215.052 192.159L215.804 192.818ZM205.662 199.807L206.033 200.735L206.037 200.734L205.662 199.807ZM191.386 201.278C184.789 201.278 179.17 199.943 174.49 197.316L173.51 199.059C178.546 201.887 184.518 203.278 191.386 203.278V201.278ZM174.496 197.319C169.836 194.66 166.249 190.911 163.723 186.05L161.948 186.973C164.648 192.168 168.504 196.203 173.504 199.056L174.496 197.319ZM163.724 186.052C161.197 181.164 159.915 175.348 159.915 168.571H157.915C157.915 175.601 159.246 181.745 161.947 186.971L163.724 186.052ZM159.915 168.571C159.915 161.969 161.196 156.222 163.725 151.301L161.946 150.387C159.248 155.636 157.915 161.707 157.915 168.571H159.915ZM163.725 151.301C166.256 146.376 169.807 142.554 174.386 139.812L173.358 138.097C168.448 141.037 164.642 145.141 161.946 150.387L163.725 151.301ZM174.384 139.814C178.979 137.079 184.393 135.693 190.662 135.693V133.693C184.09 133.693 178.311 135.149 173.361 138.095L174.384 139.814ZM190.662 135.693C194.871 135.693 198.771 136.371 202.371 137.718L203.072 135.845C199.229 134.407 195.089 133.693 190.662 133.693V135.693ZM202.38 137.721C205.997 139.036 209.14 141.019 211.819 143.671L213.226 142.25C210.338 139.39 206.946 137.253 203.063 135.841L202.38 137.721ZM211.823 143.675C214.518 146.315 216.631 149.651 218.149 153.708L220.022 153.008C218.415 148.712 216.153 145.117 213.223 142.246L211.823 143.675ZM218.149 153.71C219.66 157.721 220.429 162.454 220.429 167.932H222.429C222.429 162.273 221.635 157.291 220.021 153.005L218.149 153.71ZM220.429 167.932V172.918H222.429V167.932H220.429ZM221.429 171.918H166.159V173.918H221.429V171.918ZM167.159 172.918V161.668H165.159V172.918H167.159ZM166.159 162.668H204.341V160.668H166.159V162.668ZM205.341 161.668C205.341 158.905 204.739 156.416 203.508 154.231L201.765 155.212C202.807 157.061 203.341 159.203 203.341 161.668H205.341ZM203.508 154.231C202.282 152.055 200.573 150.346 198.397 149.12L197.415 150.863C199.273 151.909 200.718 153.355 201.765 155.212L203.508 154.231ZM198.412 149.129C196.248 147.862 193.753 147.244 190.96 147.244V149.244C193.451 149.244 195.587 149.792 197.401 150.854L198.412 149.129ZM190.96 147.244C188.044 147.244 185.419 147.923 183.116 149.304L184.145 151.019C186.104 149.844 188.365 149.244 190.96 149.244V147.244ZM183.12 149.302C180.867 150.642 179.094 152.46 177.815 154.744L179.56 155.722C180.667 153.744 182.19 152.182 184.142 151.021L183.12 149.302ZM177.818 154.739C176.535 156.999 175.885 159.511 175.855 162.253L177.855 162.275C177.882 159.847 178.453 157.671 179.557 155.727L177.818 154.739ZM175.855 162.264V172.96H177.855V162.264H175.855ZM175.855 172.96C175.855 176.321 176.474 179.281 177.753 181.807L179.537 180.904C178.429 178.714 177.855 176.077 177.855 172.96H175.855ZM177.757 181.815C179.063 184.336 180.913 186.298 183.301 187.676L184.301 185.943C182.257 184.764 180.67 183.09 179.533 180.895L177.757 181.815ZM183.301 187.676C185.696 189.057 188.503 189.727 191.685 189.727V187.727C188.787 187.727 186.338 187.119 184.301 185.943L183.301 187.676ZM191.685 189.727C193.796 189.727 195.753 189.43 197.545 188.822L196.903 186.928C195.344 187.457 193.608 187.727 191.685 187.727V189.727ZM197.545 188.822C199.349 188.211 200.912 187.286 202.218 186.042L200.839 184.594C199.758 185.623 198.452 186.403 196.903 186.928L197.545 188.822ZM202.218 186.042C203.527 184.796 204.516 183.274 205.191 181.497L203.321 180.787C202.745 182.305 201.916 183.568 200.839 184.594L202.218 186.042ZM204.19 182.14L220.98 183.248L221.111 181.252L204.322 180.144L204.19 182.14ZM220.067 182.043C219.249 185.915 217.578 189.28 215.052 192.159L216.556 193.478C219.314 190.333 221.137 186.654 222.024 182.457L220.067 182.043ZM215.052 192.159C212.554 195.01 209.309 197.255 205.287 198.88L206.037 200.734C210.311 199.007 213.827 196.592 216.556 193.477L215.052 192.159ZM205.291 198.878C201.312 200.47 196.684 201.278 191.386 201.278V203.278C196.885 203.278 201.773 202.439 206.033 200.735L205.291 198.878ZM245.548 198.017L245.035 198.875L245.041 198.879L245.548 198.017ZM234.469 186.085L233.575 186.534L233.577 186.538L234.469 186.085ZM234.511 150.886L233.622 150.429L233.621 150.431L234.511 150.886ZM245.634 138.997L246.143 139.858L246.147 139.856L245.634 138.997ZM277.764 137.804L278.199 136.904L278.199 136.904L277.764 137.804ZM292.082 159.75V160.75H293.134L293.081 159.7L292.082 159.75ZM274.952 159.75L273.962 159.896L274.089 160.75H274.952V159.75ZM271.116 151.866L270.414 152.579L270.424 152.588L271.116 151.866ZM255.69 151.142L256.278 151.951L256.28 151.95L255.69 151.142ZM250.79 178.926L249.858 179.288L249.861 179.296L250.79 178.926ZM255.69 185.616L256.28 184.809L256.28 184.809L255.69 185.616ZM268.645 186.639L268.192 185.748L268.185 185.751L268.645 186.639ZM272.778 182.932L271.949 182.374L271.946 182.377L272.778 182.932ZM274.952 177.009V176.009H274.089L273.963 176.862L274.952 177.009ZM292.082 177.009L293.081 177.065L293.141 176.009H292.082V177.009ZM287.991 190.219L287.15 189.679L287.149 189.68L287.991 190.219ZM277.977 199.082L277.53 198.188L277.53 198.188L277.977 199.082ZM262.849 201.278C256.288 201.278 250.703 199.889 246.055 197.155L245.041 198.879C250.052 201.827 256.002 203.278 262.849 203.278V201.278ZM246.061 197.159C241.425 194.388 237.862 190.553 235.36 185.632L233.577 186.538C236.246 191.788 240.069 195.907 245.035 198.875L246.061 197.159ZM235.362 185.636C232.886 180.711 231.634 175.017 231.634 168.528H229.634C229.634 175.278 230.938 181.289 233.575 186.534L235.362 185.636ZM231.634 168.528C231.634 161.954 232.9 156.234 235.402 151.342L233.621 150.431C230.952 155.652 229.634 161.694 229.634 168.528H231.634ZM235.401 151.343C237.931 146.421 241.508 142.6 246.143 139.858L245.124 138.137C240.157 141.076 236.319 145.181 233.622 150.429L235.401 151.343ZM246.147 139.856C250.766 137.095 256.292 135.693 262.764 135.693V133.693C255.998 133.693 250.103 135.161 245.121 138.139L246.147 139.856ZM262.764 135.693C268.353 135.693 273.199 136.708 277.329 138.704L278.199 136.904C273.75 134.752 268.596 133.693 262.764 133.693V135.693ZM277.329 138.704C281.468 140.705 284.722 143.502 287.117 147.094L288.781 145.985C286.176 142.078 282.64 139.051 278.199 136.904L277.329 138.704ZM287.117 147.094C289.505 150.677 290.836 154.901 291.084 159.8L293.081 159.7C292.817 154.485 291.393 149.903 288.781 145.985L287.117 147.094ZM292.082 158.75H274.952V160.75H292.082V158.75ZM275.941 159.604C275.431 156.152 274.066 153.309 271.809 151.145L270.424 152.588C272.315 154.401 273.507 156.814 273.962 159.896L275.941 159.604ZM271.819 151.154C269.557 148.924 266.605 147.841 263.062 147.841V149.841C266.168 149.841 268.586 150.775 270.414 152.579L271.819 151.154ZM263.062 147.841C260.056 147.841 257.388 148.665 255.101 150.334L256.28 151.95C258.197 150.551 260.444 149.841 263.062 149.841V147.841ZM255.103 150.333C252.846 151.971 251.124 154.34 249.905 157.374L251.76 158.12C252.87 155.359 254.386 153.324 256.278 151.951L255.103 150.333ZM249.905 157.374C248.68 160.422 248.085 164.064 248.085 168.273H250.085C250.085 164.243 250.656 160.868 251.76 158.12L249.905 157.374ZM248.085 168.273C248.085 172.534 248.664 176.215 249.858 179.288L251.722 178.564C250.643 175.785 250.085 172.364 250.085 168.273H248.085ZM249.861 179.296C251.08 182.36 252.817 184.758 255.101 186.424L256.28 184.809C254.359 183.407 252.829 181.344 251.719 178.556L249.861 179.296ZM255.101 186.424C257.388 188.094 260.056 188.918 263.062 188.918V186.918C260.444 186.918 258.197 186.208 256.28 184.809L255.101 186.424ZM263.062 188.918C265.277 188.918 267.299 188.461 269.104 187.527L268.185 185.751C266.696 186.522 264.996 186.918 263.062 186.918V188.918ZM269.098 187.531C270.933 186.598 272.439 185.244 273.61 183.487L271.946 182.377C270.959 183.859 269.709 184.976 268.192 185.748L269.098 187.531ZM273.608 183.49C274.812 181.699 275.582 179.578 275.941 177.155L273.963 176.862C273.64 179.041 272.96 180.869 271.949 182.374L273.608 183.49ZM274.952 178.009H292.082V176.009H274.952V178.009ZM291.084 176.952C290.809 181.799 289.49 186.032 287.15 189.679L288.833 190.759C291.379 186.792 292.788 182.218 293.081 177.065L291.084 176.952ZM287.149 189.68C284.837 193.297 281.64 196.133 277.53 198.188L278.424 199.977C282.837 197.771 286.316 194.697 288.834 190.757L287.149 189.68ZM277.53 198.188C273.435 200.235 268.552 201.278 262.849 201.278V203.278C268.795 203.278 273.997 202.191 278.424 199.977L277.53 198.188ZM320.154 182.165L319.154 182.163L319.149 184.83L320.906 182.824L320.154 182.165ZM320.197 160.389V159.389H319.199L319.197 160.387L320.197 160.389ZM322.839 160.389V161.389H323.303L323.603 161.034L322.839 160.389ZM343.805 135.545V134.545H343.34L343.04 134.901L343.805 135.545ZM364.643 135.545L365.402 136.196L366.815 134.545H364.643V135.545ZM336.475 168.443V169.443H336.935L337.235 169.094L336.475 168.443ZM332.171 168.443V167.443H331.718L331.419 167.784L332.171 168.443ZM303.705 201H302.705V202H303.705V201ZM303.705 113.727V112.727H302.705V113.727H303.705ZM321.859 113.727H322.859V112.727H321.859V113.727ZM321.859 201V202H322.859V201H321.859ZM344.614 201L343.786 201.56L344.083 202H344.614V201ZM325.353 172.491L324.626 171.805L324.076 172.388L324.524 173.051L325.353 172.491ZM337.455 159.665L338.279 159.098L337.578 158.078L336.728 158.979L337.455 159.665ZM365.879 201V202H367.78L366.703 200.433L365.879 201ZM321.154 182.167L321.197 160.391L319.197 160.387L319.154 182.163L321.154 182.167ZM320.197 161.389H322.839V159.389H320.197V161.389ZM323.603 161.034L344.569 136.19L343.04 134.901L322.075 159.744L323.603 161.034ZM343.805 136.545H364.643V134.545H343.805V136.545ZM363.883 134.895L335.716 167.793L337.235 169.094L365.402 136.196L363.883 134.895ZM336.475 167.443H332.171V169.443H336.475V167.443ZM331.419 167.784L319.402 181.506L320.906 182.824L332.923 169.102L331.419 167.784ZM304.705 201V113.727H302.705V201H304.705ZM303.705 114.727H321.859V112.727H303.705V114.727ZM320.859 113.727V201H322.859V113.727H320.859ZM321.859 200H303.705V202H321.859V200ZM345.443 200.44L326.182 171.932L324.524 173.051L343.786 201.56L345.443 200.44ZM326.08 173.178L338.183 160.351L336.728 158.979L324.626 171.805L326.08 173.178ZM336.631 160.231L365.055 201.567L366.703 200.433L338.279 159.098L336.631 160.231ZM365.879 200H344.614V202H365.879V200Z" fill="#013234"/>
</g>
</svg>
