<svg width="752" height="243" viewBox="0 0 752 243" fill="none" xmlns="http://www.w3.org/2000/svg">
<rect x="0.5" y="0.5" width="751" height="242" fill="url(#paint0_linear_1045_863)"/>
<rect x="0.5" y="0.5" width="751" height="242" stroke="black"/>
<rect x="0.5" y="0.5" width="751" height="242" stroke="black" stroke-opacity="0.2"/>
<circle cx="83" cy="67" r="41" stroke="#65E4EA" stroke-width="8"/>
<path d="M101.587 52.3261L74.361 79.7174L62.4565 66.1028" stroke="#65E4EA" stroke-width="8" stroke-linecap="round" stroke-linejoin="round"/>
<path d="M181.477 91.7457C177.566 91.7457 174.202 90.9171 171.385 89.2599C168.584 87.5862 166.43 85.2661 164.922 82.2997C163.43 79.3333 162.685 75.9195 162.685 72.0582C162.685 68.1473 163.439 64.7169 164.947 61.767C166.471 58.8007 168.634 56.4889 171.435 54.8317C174.235 53.1579 177.566 52.321 181.428 52.321C184.759 52.321 187.675 52.9259 190.178 54.1357C192.68 55.3454 194.66 57.044 196.119 59.2315C197.577 61.419 198.381 63.9877 198.53 66.9375H188.537C188.255 65.0317 187.509 63.4988 186.3 62.3388C185.107 61.1622 183.54 60.5739 181.602 60.5739C179.961 60.5739 178.527 61.0213 177.301 61.9162C176.091 62.7945 175.147 64.0788 174.467 65.7692C173.788 67.4595 173.448 69.5062 173.448 71.9091C173.448 74.3452 173.78 76.4167 174.442 78.1236C175.122 79.8305 176.075 81.1314 177.301 82.0263C178.527 82.9212 179.961 83.3686 181.602 83.3686C182.811 83.3686 183.897 83.12 184.858 82.6229C185.836 82.1257 186.639 81.4048 187.269 80.4602C187.915 79.4991 188.338 78.3473 188.537 77.005H198.53C198.364 79.9216 197.569 82.4903 196.143 84.7109C194.735 86.915 192.788 88.6385 190.302 89.8814C187.816 91.1243 184.875 91.7457 181.477 91.7457ZM215.899 68.9261V91H205.31V40.0909H215.601V59.5547H216.048C216.91 57.3009 218.302 55.536 220.225 54.2599C222.147 52.9673 224.558 52.321 227.458 52.321C230.11 52.321 232.422 52.901 234.394 54.0611C236.382 55.2045 237.923 56.8535 239.017 59.0078C240.128 61.1456 240.674 63.706 240.658 66.6889V91H230.068V68.5781C230.085 66.2249 229.488 64.3937 228.279 63.0845C227.085 61.7753 225.412 61.1207 223.257 61.1207C221.816 61.1207 220.539 61.4273 219.429 62.0405C218.335 62.6536 217.474 63.5485 216.844 64.7251C216.231 65.8852 215.916 67.2855 215.899 68.9261ZM266.392 91.7457C262.464 91.7457 259.084 90.9503 256.25 89.3594C253.433 87.7519 251.262 85.4815 249.737 82.5483C248.213 79.5985 247.45 76.1101 247.45 72.0831C247.45 68.1555 248.213 64.7086 249.737 61.7422C251.262 58.7758 253.408 56.464 256.175 54.8068C258.96 53.1496 262.224 52.321 265.969 52.321C268.488 52.321 270.833 52.727 273.004 53.5391C275.192 54.3345 277.098 55.536 278.722 57.1435C280.362 58.7509 281.638 60.7727 282.55 63.2088C283.461 65.6283 283.917 68.4621 283.917 71.7102V74.6186H251.676V68.0561H273.949C273.949 66.5315 273.617 65.1809 272.955 64.0043C272.292 62.8277 271.372 61.9079 270.195 61.245C269.035 60.5656 267.685 60.2259 266.143 60.2259C264.536 60.2259 263.111 60.5987 261.868 61.3445C260.642 62.0736 259.68 63.0597 258.984 64.3026C258.288 65.5289 257.932 66.8961 257.915 68.4041V74.6435C257.915 76.5327 258.263 78.165 258.96 79.5405C259.672 80.916 260.675 81.9766 261.967 82.7223C263.26 83.468 264.793 83.8409 266.566 83.8409C267.743 83.8409 268.82 83.6752 269.798 83.3438C270.775 83.0123 271.612 82.5152 272.308 81.8523C273.004 81.1894 273.535 80.3774 273.899 79.4162L283.693 80.0625C283.196 82.4157 282.177 84.4706 280.636 86.2273C279.111 87.9673 277.139 89.3262 274.719 90.304C272.317 91.2652 269.541 91.7457 266.392 91.7457ZM308.079 91.7457C304.168 91.7457 300.804 90.9171 297.987 89.2599C295.186 87.5862 293.031 85.2661 291.523 82.2997C290.032 79.3333 289.286 75.9195 289.286 72.0582C289.286 68.1473 290.04 64.7169 291.548 61.767C293.073 58.8007 295.236 56.4889 298.036 54.8317C300.837 53.1579 304.168 52.321 308.029 52.321C311.36 52.321 314.277 52.9259 316.779 54.1357C319.281 55.3454 321.262 57.044 322.72 59.2315C324.179 61.419 324.982 63.9877 325.131 66.9375H315.138C314.857 65.0317 314.111 63.4988 312.901 62.3388C311.708 61.1622 310.142 60.5739 308.203 60.5739C306.562 60.5739 305.129 61.0213 303.903 61.9162C302.693 62.7945 301.748 64.0788 301.069 65.7692C300.389 67.4595 300.05 69.5062 300.05 71.9091C300.05 74.3452 300.381 76.4167 301.044 78.1236C301.723 79.8305 302.676 81.1314 303.903 82.0263C305.129 82.9212 306.562 83.3686 308.203 83.3686C309.413 83.3686 310.498 83.12 311.46 82.6229C312.437 82.1257 313.241 81.4048 313.871 80.4602C314.517 79.4991 314.94 78.3473 315.138 77.005H325.131C324.966 79.9216 324.17 82.4903 322.745 84.7109C321.336 86.915 319.389 88.6385 316.903 89.8814C314.418 91.1243 311.476 91.7457 308.079 91.7457ZM341.507 80.0128L341.531 67.3104H343.073L355.303 52.8182H367.458L351.027 72.0085H348.517L341.507 80.0128ZM331.911 91V40.0909H342.501V91H331.911ZM355.775 91L344.539 74.37L351.599 66.8878L368.179 91H355.775Z" fill="#65E4EA"/>
<defs>
<linearGradient id="paint0_linear_1045_863" x1="376" y1="-54.1045" x2="376" y2="193.02" gradientUnits="userSpaceOnUse">
<stop stop-color="#65DDEA" stop-opacity="0.4"/>
<stop offset="1" stop-color="#65DDEA" stop-opacity="0"/>
</linearGradient>
</defs>
</svg>
