<svg xmlns="http://www.w3.org/2000/svg" width="404" height="251" fill="none" viewBox="0 0 404 251"><path fill="#105A5E" d="M.5.5h403v250H.5z"/><path stroke="#000" d="M.5.5h403v250H.5z"/><path stroke="#000" stroke-opacity=".2" d="M.5.5h403v250H.5z"/><path stroke="#65E4EA" stroke-width="8" d="M237.732 144.667c0 6.259-5.074 11.333-11.333 11.333s-11.333-5.074-11.333-11.333c0-6.26 5.074-11.334 11.333-11.334s11.333 5.074 11.333 11.334ZM188.667 95.6c0 6.259-5.074 11.333-11.334 11.333-6.259 0-11.333-5.074-11.333-11.333 0-6.26 5.074-11.333 11.333-11.333 6.26 0 11.334 5.074 11.334 11.333Zm49.065-12.267c0 6.26-5.074 11.334-11.333 11.334s-11.333-5.074-11.333-11.334c0-6.259 5.074-11.333 11.333-11.333s11.333 5.074 11.333 11.333Z"/><path stroke="#65E4EA" stroke-width="8" d="M180.398 104.8c0 25.179 20.7 36.8 36.8 36.8m10.137-49.067v42.934"/></svg>