<svg width="404" height="251" viewBox="0 0 404 251" fill="none" xmlns="http://www.w3.org/2000/svg">
<rect width="404" height="251" fill="#65E4EA"/>
<path d="M237.733 144.667C237.733 150.926 232.658 156 226.399 156C220.14 156 215.066 150.926 215.066 144.667C215.066 138.408 220.14 133.333 226.399 133.333C232.658 133.333 237.733 138.408 237.733 144.667Z" stroke="#013234" stroke-width="8"/>
<path d="M188.667 95.5999C188.667 101.859 183.593 106.933 177.333 106.933C171.074 106.933 166 101.859 166 95.5999C166 89.3407 171.074 84.2666 177.333 84.2666C183.593 84.2666 188.667 89.3407 188.667 95.5999Z" stroke="#013234" stroke-width="8"/>
<path d="M237.733 83.3333C237.733 89.5926 232.658 94.6667 226.399 94.6667C220.14 94.6667 215.066 89.5926 215.066 83.3333C215.066 77.0741 220.14 72 226.399 72C232.658 72 237.733 77.0741 237.733 83.3333Z" stroke="#013234" stroke-width="8"/>
<path d="M180.398 104.8C180.398 129.979 201.098 141.6 217.198 141.6" stroke="#013234" stroke-width="8"/>
<line x1="227.335" y1="92.5332" x2="227.335" y2="135.467" stroke="#013234" stroke-width="8"/>
</svg>
