<svg width="404" height="251" viewBox="0 0 404 251" fill="none" xmlns="http://www.w3.org/2000/svg">
<rect x="0.5" y="0.5" width="403" height="250" fill="#013234"/>
<rect x="0.5" y="0.5" width="403" height="250" stroke="black"/>
<rect x="0.5" y="0.5" width="403" height="250" stroke="black" stroke-opacity="0.2"/>
<path d="M237.732 144.667C237.732 150.926 232.658 156 226.399 156C220.14 156 215.066 150.926 215.066 144.667C215.066 138.407 220.14 133.333 226.399 133.333C232.658 133.333 237.732 138.407 237.732 144.667Z" stroke="#65E4EA" stroke-width="8"/>
<path d="M188.667 95.6C188.667 101.859 183.593 106.933 177.333 106.933C171.074 106.933 166 101.859 166 95.6C166 89.3408 171.074 84.2667 177.333 84.2667C183.593 84.2667 188.667 89.3408 188.667 95.6Z" stroke="#65E4EA" stroke-width="8"/>
<path d="M237.732 83.3333C237.732 89.5926 232.658 94.6667 226.399 94.6667C220.14 94.6667 215.066 89.5926 215.066 83.3333C215.066 77.0741 220.14 72 226.399 72C232.658 72 237.732 77.0741 237.732 83.3333Z" stroke="#65E4EA" stroke-width="8"/>
<path d="M180.398 104.8C180.398 129.979 201.098 141.6 217.198 141.6" stroke="#65E4EA" stroke-width="8"/>
<line x1="227.335" y1="92.5333" x2="227.335" y2="135.467" stroke="#65E4EA" stroke-width="8"/>
</svg>
