<svg xmlns="http://www.w3.org/2000/svg" width="404" height="251" fill="none" viewBox="0 0 404 251"><path fill="#FC6469" d="M0 0h404v251H0z"/><g opacity=".92"><path fill="#360103" fill-rule="evenodd" d="M236.5 110.667h-59.8a6.9 6.9 0 0 0-6.9 6.9v31.138a6.9 6.9 0 0 0 6.9 6.9h59.8a6.9 6.9 0 0 0 6.9-6.9v-31.138a6.9 6.9 0 0 0-6.9-6.9Zm-59.8-4.6c-6.352 0-11.5 5.149-11.5 11.5v31.138c0 6.352 5.148 11.5 11.5 11.5h59.8c6.351 0 11.5-5.148 11.5-11.5v-31.138c0-6.351-5.149-11.5-11.5-11.5h-59.8Z" clip-rule="evenodd"/><path fill="#FF999C" d="M156 103.767c0-6.352 5.149-11.5 11.5-11.5h59.8c6.351 0 11.5 5.148 11.5 11.5v31.138c0 6.351-5.149 11.5-11.5 11.5h-59.8c-6.351 0-11.5-5.149-11.5-11.5v-31.138Z"/><path fill="#360103" fill-rule="evenodd" d="M227.3 96.867h-59.8a6.9 6.9 0 0 0-6.9 6.9v31.138a6.9 6.9 0 0 0 6.9 6.9h59.8a6.9 6.9 0 0 0 6.9-6.9v-31.138a6.9 6.9 0 0 0-6.9-6.9Zm-59.8-4.6c-6.351 0-11.5 5.148-11.5 11.5v31.138c0 6.351 5.149 11.5 11.5 11.5h59.8c6.351 0 11.5-5.149 11.5-11.5v-31.138c0-6.352-5.149-11.5-11.5-11.5h-59.8Z" clip-rule="evenodd"/><path fill="#360103" fill-rule="evenodd" d="M182.274 113.143a1.769 1.769 0 1 0 0-3.538 1.769 1.769 0 0 0 0 3.538Zm0 4.6a6.369 6.369 0 0 0 0-12.738 6.37 6.37 0 1 0 0 12.738Zm-9.618 11.262h19.026c-.313-.898-.957-1.873-2.009-2.802-1.792-1.583-4.503-2.749-7.638-2.749-5.114 0-8.31 2.54-9.379 5.551Zm-5 2.3c0-6.933 5.984-12.451 14.379-12.451 4.256 0 8.05 1.575 10.683 3.901 2.579 2.278 4.333 5.584 3.652 9l-.368 1.85h-28.346v-2.3Zm59.998-19.223h-27.07v-4.6h27.07v4.6Zm0 7.785h-27.07v-4.6h27.07v4.6Z" clip-rule="evenodd"/></g></svg>