<svg width="404" height="251" viewBox="0 0 404 251" fill="none" xmlns="http://www.w3.org/2000/svg">
<path d="M0 0L404 0L404 251L0 251L0 0Z" fill="#F2D664"/>
<g clip-path="url(#clip0_1041_793)">
<path d="M202 172V162.002C221.851 162.002 238.001 145.852 238.001 126.001C238.001 106.149 221.851 89.9988 202 89.9988C182.148 89.9988 165.998 106.149 165.998 126.001H156C156 100.636 176.636 80 202 80C227.364 80 248 100.636 248 126.001C248 151.364 227.364 172 202 172H202Z" fill="#261F00"/>
<path d="M179.665 126.724H169.666C169.666 108.614 184.171 93.8809 201.999 93.8809V104.037C189.684 104.037 179.665 114.214 179.665 126.724Z" fill="#261F00"/>
<path d="M220.667 126.725H210.669C210.669 121.87 206.781 117.92 202.001 117.92C197.222 117.92 193.333 121.87 193.333 126.725H183.334C183.334 116.27 191.709 107.765 202.001 107.765C212.293 107.765 220.667 116.27 220.667 126.725Z" fill="#261F00"/>
</g>
<defs>
<clipPath id="clip0_1041_793">
<rect width="92" height="92" fill="white" transform="translate(156 80)"/>
</clipPath>
</defs>
</svg>
