<svg xmlns="http://www.w3.org/2000/svg" width="404" height="251" fill="none" viewBox="0 0 404 251"><path fill="#F2D664" d="M0 0h404v251H0V0Z"/><g fill="#261F00" clip-path="url(#a)"><path d="M202 172v-9.998c19.851 0 36.001-16.15 36.001-36.001 0-19.852-16.15-36.002-36.001-36.002-19.852 0-36.002 16.15-36.002 36.002H156C156 100.636 176.636 80 202 80s46 20.636 46 46.001C248 151.364 227.364 172 202 172Z"/><path d="M179.665 126.724h-9.999c0-18.11 14.505-32.843 32.333-32.843v10.156c-12.315 0-22.334 10.177-22.334 22.687Z"/><path d="M220.667 126.725h-9.998c0-4.855-3.888-8.805-8.668-8.805-4.779 0-8.668 3.95-8.668 8.805h-9.999c0-10.455 8.375-18.96 18.667-18.96 10.292 0 18.666 8.505 18.666 18.96Z"/></g><defs><clipPath id="a"><path fill="#fff" d="M156 80h92v92h-92z"/></clipPath></defs></svg>