<svg xmlns="http://www.w3.org/2000/svg" width="404" height="251" fill="none" viewBox="0 0 404 251"><path fill="#68E6B8" d="M0 0h404v251H0z"/><path fill="#022719" fill-rule="evenodd" d="M238.538 94.193c.001 0-.001.008-.006.023a.145.145 0 0 1 .006-.023Zm-.075.162c-.123-.21-.434-.622-1.184-1.22-1.454-1.16-3.901-2.45-7.422-3.638-6.985-2.356-16.992-3.911-28.304-3.911-11.312 0-21.319 1.555-28.304 3.912-3.521 1.187-5.968 2.477-7.422 3.637-.75.598-1.061 1.01-1.184 1.22.123.21.434.623 1.184 1.22 1.454 1.16 3.901 2.45 7.422 3.638 6.985 2.356 16.992 3.911 28.304 3.911 11.312 0 21.319-1.555 28.304-3.911 3.521-1.188 5.968-2.478 7.422-3.637.75-.598 1.061-1.01 1.184-1.22Zm-73.895-.162.006.024c-.005-.016-.007-.023-.006-.024Zm0 .324c-.001 0 .001-.008.006-.023a.145.145 0 0 1-.006.023Zm73.964-.023c.005.015.007.023.006.023l-.006-.023Zm-36.979 14.216c23.501 0 42.553-6.427 42.553-14.355 0-7.928-19.052-14.355-42.553-14.355C178.052 80 159 86.427 159 94.355c0 7.928 19.052 14.355 42.553 14.355Zm-38.031 55.23c-2.291-1.688-4.239-4.033-4.239-7.038h5.586c0 .394.262 1.285 1.967 2.541 1.649 1.216 4.214 2.427 7.634 3.493 6.808 2.122 16.384 3.478 27.083 3.478 10.7 0 20.41-1.356 27.353-3.482 3.489-1.068 6.123-2.284 7.823-3.507 1.769-1.273 2.021-2.163 2.021-2.523h5.586c0 3.039-2.022 5.386-4.344 7.057-2.392 1.721-5.667 3.156-9.45 4.315-7.601 2.327-17.886 3.726-28.989 3.726-11.102 0-21.265-1.399-28.745-3.731-3.724-1.16-6.94-2.6-9.286-4.329Zm0-19.481c-2.291-1.688-4.239-4.034-4.239-7.038h5.586c0 .393.262 1.285 1.967 2.541 1.649 1.215 4.214 2.427 7.634 3.493 6.808 2.122 16.384 3.477 27.083 3.477 10.7 0 20.41-1.355 27.353-3.481 3.489-1.069 6.123-2.284 7.823-3.508 1.769-1.273 2.021-2.163 2.021-2.522h5.586c0 3.038-2.022 5.385-4.344 7.056-2.392 1.721-5.667 3.157-9.45 4.315-7.601 2.327-17.886 3.726-28.989 3.726-11.102 0-21.265-1.399-28.745-3.73-3.724-1.161-6.94-2.6-9.286-4.329Zm0-22.559c-2.291-1.688-4.239-4.033-4.239-7.038h5.586c0 .394.262 1.285 1.967 2.541 1.649 1.215 4.214 2.427 7.634 3.493 6.808 2.122 16.384 3.478 27.083 3.478 10.7 0 20.41-1.356 27.353-3.482 3.489-1.068 6.123-2.284 7.823-3.507 1.769-1.273 2.021-2.163 2.021-2.523h5.586c0 3.039-2.022 5.385-4.344 7.057-2.392 1.721-5.667 3.156-9.45 4.315-7.601 2.327-17.886 3.726-28.989 3.726-11.102 0-21.265-1.399-28.745-3.731-3.724-1.16-6.94-2.6-9.286-4.329Z" clip-rule="evenodd"/><path fill="#022719" fill-rule="evenodd" d="M241.543 90.537a2.793 2.793 0 0 1 2.793 2.793v65.111a2.793 2.793 0 0 1-5.586 0v-65.11a2.793 2.793 0 0 1 2.793-2.794Zm-79.467 1.538a2.793 2.793 0 0 1 2.793 2.793v64.086a2.792 2.792 0 1 1-5.586 0V94.868a2.793 2.793 0 0 1 2.793-2.793Z" clip-rule="evenodd"/></svg>