<svg xmlns="http://www.w3.org/2000/svg" width="404" height="251" fill="none" viewBox="0 0 404 251"><path fill="#F2D664" d="M0 0h404v251H0z"/><path fill="#261F00" fill-rule="evenodd" d="m174.846 91.302 7.118 7.259-1.906 6.401a2.215 2.215 0 0 1-1.521 1.497l-.022.007-6.275 1.694-7.22-7.236a13.031 13.031 0 0 0-.362 3.063c0 7.173 5.799 12.979 12.943 12.979 1.563 0 3.057-.277 4.439-.782l1.296-.475 33.001 33.035c.471.472 1.437.894 2.656.891 1.181-.004 2.312-.41 3.096-1.197.785-.786 1.192-1.922 1.195-3.11.004-1.226-.418-2.196-.889-2.668l-33.036-33.07.452-1.282c.474-1.349.734-2.802.734-4.321 0-7.173-5.8-12.98-12.944-12.98-.946 0-1.868.102-2.755.295Zm-4.871-2.842a17.176 17.176 0 0 1 7.626-1.775c9.541 0 17.266 7.751 17.266 17.302 0 1.529-.198 3.013-.571 4.429l31.158 31.19c1.474 1.478 2.159 3.663 2.153 5.735-.006 2.109-.725 4.414-2.458 6.151s-4.035 2.459-6.143 2.465c-2.071.007-4.253-.68-5.728-2.159l-31.094-31.125a17.254 17.254 0 0 1-4.583.616c-9.541 0-17.266-7.751-17.266-17.302 0-2.864.696-5.57 1.929-7.955l1.36-2.628 9.907 9.93 2.72-.735.843-2.83-9.794-9.987 2.675-1.322Z" clip-rule="evenodd"/><path fill="#261F00" fill-rule="evenodd" d="M185.946 154.506c7.196-4.341 15.912-11.635 24.382-20.876 8.47-9.241 14.979-18.558 18.679-26.104 1.856-3.786 2.948-7.012 3.284-9.494.345-2.559-.168-3.792-.756-4.33-.295-.271-1.25-.646-3.659.001-2.254.606-5.144 1.949-8.47 3.93-6.623 3.947-14.543 10.169-21.81 17.058l-2.974-3.137c7.426-7.04 15.599-13.48 22.571-17.634 3.472-2.07 6.755-3.638 9.562-4.392 2.652-.713 5.646-.897 7.701.987 2.162 1.981 2.531 5.044 2.119 8.096-.423 3.128-1.73 6.826-3.687 10.818-3.927 8.011-10.705 17.665-19.373 27.122-8.669 9.457-17.697 17.048-25.336 21.657-3.807 2.296-7.378 3.919-10.458 4.612-3.004.676-6.088.574-8.249-1.407-1.997-1.831-2.461-4.59-2.202-7.369.262-2.825 1.301-6.138 2.905-9.709 3.219-7.164 8.929-15.835 16.353-24.561l3.293 2.801c-7.252 8.523-12.7 16.849-15.702 23.532-1.507 3.353-2.344 6.176-2.545 8.338-.206 2.207.278 3.286.819 3.781.587.539 1.86.943 4.379.377 2.444-.55 5.563-1.919 9.174-4.097Z" clip-rule="evenodd"/><path fill="#9B7C00" d="M166.231 141.133a7.47 7.47 0 0 1 14.939 0 7.47 7.47 0 1 1-14.939 0Z"/><path fill="#261F00" fill-rule="evenodd" d="M173.701 137.986a3.147 3.147 0 1 0 0 6.294 3.147 3.147 0 0 0 0-6.294Zm0-4.322a7.47 7.47 0 1 0 0 14.939 7.47 7.47 0 0 0 0-14.939Z" clip-rule="evenodd"/><path fill="#9B7C00" d="M218.518 114.99a7.47 7.47 0 1 1 14.94 0 7.47 7.47 0 0 1-14.94 0Z"/><path fill="#261F00" fill-rule="evenodd" d="M225.987 111.843a3.146 3.146 0 1 0 0 6.292 3.146 3.146 0 0 0 0-6.292Zm0-4.323a7.47 7.47 0 1 0 .002 14.94 7.47 7.47 0 0 0-.002-14.94Z" clip-rule="evenodd"/></svg>